<?xml version="1.0" encoding="utf-8"?>
<!-- Generator: Adobe Illustrator 15.0.0, SVG Export Plug-In . SVG Version: 6.00 Build 0)  -->
<!DOCTYPE svg PUBLIC "-//W3C//DTD SVG 1.1//EN" "http://www.w3.org/Graphics/SVG/1.1/DTD/svg11.dtd">
<svg version="1.1" id="Layer_1" xmlns="http://www.w3.org/2000/svg" xmlns:xlink="http://www.w3.org/1999/xlink" x="0px" y="0px"
	 width="26px" height="26px" viewBox="0 0 26 26" enable-background="new 0 0 26 26" xml:space="preserve">
<g>
	<path d="M8.919,8.088L6.18,8.093c0,0-2.165,0.098-2.161,2.192v0.058c-0.454,0.311-0.753,0.833-0.753,1.425
		c0,0.594,0.301,1.118,0.757,1.429c0.003,0.257,0.088,2.39,2.081,2.387c0,0,0.825,0.03,0.754,1.351l0.008,5.211
		c0,0-0.131,0.837,0.708,0.836c0,0,2.45-0.354,1.231-2.855c0.917-0.949-0.394-1.503,0.128-3.057c0,0,0.706-0.978,0.705-1.536
		l0.032-6.654C9.672,8.878,9.804,8.086,8.919,8.088z"/>
	<path d="M21.469,9.432l-0.01-6.082c-0.002-0.795-0.672,0.09-0.672,0.09c-3.18,4.954-9.757,4.568-9.757,4.568
		c-0.776,0.001-0.652,0.663-0.652,0.663l0.011,5.744c0,0.662,0.695,0.661,0.695,0.661c7.352-0.014,9.865,4.63,9.865,4.63
		s0.58,0.72,0.539-0.031l-0.012-6.069c0.744-0.401,1.258-1.183,1.256-2.09C22.732,10.608,22.215,9.832,21.469,9.432z M14.232,8.617
		c0,0,4.324-0.606,6.416-3.854C20.648,4.763,19.836,8.56,14.232,8.617z M22.273,12.194c0,0,0.223-1.035-0.609-2.254
		C21.664,9.94,22.781,10.59,22.273,12.194z"/>
</g>
</svg>
