<?xml version="1.0" encoding="utf-8"?>
<!-- Generator: Adobe Illustrator 18.0.0, SVG Export Plug-In . SVG Version: 6.00 Build 0)  -->
<!DOCTYPE svg PUBLIC "-//W3C//DTD SVG 1.1//EN" "http://www.w3.org/Graphics/SVG/1.1/DTD/svg11.dtd">
<svg version="1.1" id="Layer_1" xmlns="http://www.w3.org/2000/svg" xmlns:xlink="http://www.w3.org/1999/xlink" x="0px" y="0px"
	 viewBox="0 0 500 500" enable-background="new 0 0 500 500" xml:space="preserve">
<g id="Pig_Major">
	<g>
		<g>
			<g>
				<path d="M167.9,379.6c-21.5-8.3-40.6-20.2-57-36.5c-5.9-5.8-12.3-11.1-18.1-17c-4.8-4.7-10.1-9.3-13.5-15
					c-13.8-22.7-21.3-47.6-21.7-74.2c-0.2-13.9,1.5-27.9,2.7-41.8c1.1-12.5,4-24.5,8.3-36.3c3.7-10.2,9.7-18.8,15.5-27.7
					c2.2-3.4,4.6-6.6,7.1-9.9c0.6-1.1,1.3-2.2,2.2-3.3c0.8-1.4,1.9-2.7,3-3.9c0-0.1,0.1-0.1,0.1-0.2c2.2-3.1,4.8-5.7,7.4-8.3
					c1.2-1.4,2.5-2.9,3.8-4.3c0.8-2.2,2.2-4.1,3.9-5.7c-0.1,0-0.2,0.1-0.3,0.1c-1.3,1.6-2.7,3-4.4,4c0,0,0,0,0,0
					c-0.1,0.2-0.2,0.3-0.4,0.5c-0.3,0.3-0.6,0.6-0.9,1c-0.5,0.5-1,1-1.6,1.5c-0.2,0.1-0.4,0.3-0.5,0.4c-0.1,0-0.1,0.1-0.2,0.1
					c-1.5,1.7-2.9,3.2-4.3,4.8c-0.3,1.1-0.9,2-1.8,2.7c0,0-0.1,0.1-0.1,0.1c-1,1.4-2.3,2.6-3.7,3.8c-0.3,0.6-0.7,1.1-1.1,1.6
					c-0.4,0.7-0.8,1.3-1.3,1.8c-0.6,0.7-1.2,1.4-1.8,2.1c-3.9,5.8-7.4,12-11.6,17.6c-9.8,13.2-14.7,28.2-17.4,44
					c-2,11.8-2.8,23.7-4.2,35.6c-1.7,14.8-1.1,29.7,2,44.1c2.3,10.7,6,21.1,9.7,31.4c4.2,11.7,10.2,22.5,19.1,31.2
					c9,8.8,18.3,17.3,27.9,25.5c7.5,6.5,14.9,13.6,23.6,18.1c17.4,9.1,35.5,16.5,53.4,24.6c0.6,0.3,1.6-0.1,3.7-0.3
					C185.4,387.4,176.8,383,167.9,379.6z"/>
				<path d="M192.2,392.9c-0.3,0-0.5,0-0.7-0.1c-4.8-2.2-9.8-4.4-14.6-6.5c-12.9-5.7-26.2-11.5-38.9-18.1
					c-7.2-3.8-13.6-9.4-19.8-14.8c-1.3-1.1-2.6-2.3-3.9-3.4c-9.6-8.2-19-16.8-27.9-25.5c-8.3-8.1-14.6-18.3-19.2-31.4l0-0.1
					c-3.6-10.2-7.4-20.7-9.7-31.4c-3.1-14.4-3.7-29.3-2-44.3c0.5-3.9,0.9-8,1.3-11.8c0.8-7.8,1.6-15.9,3-23.8
					c3.2-18.4,8.8-32.5,17.5-44.2c2.5-3.4,4.8-7,7-10.6c1.5-2.3,3-4.7,4.5-7c0.6-0.7,1.2-1.3,1.8-2.1c0.5-0.5,0.9-1.1,1.3-1.7
					c0.4-0.6,0.8-1.1,1.1-1.7l0.1-0.1c1.6-1.3,2.7-2.5,3.6-3.7c0.1-0.1,0.1-0.1,0.1-0.2l0.1-0.1c0.8-0.6,1.3-1.4,1.6-2.4l0-0.1
					l1.5-1.7c0.9-1,1.9-2.1,2.8-3.2l0.2-0.2c0.2-0.1,0.3-0.3,0.5-0.4c0.6-0.4,1.1-0.9,1.5-1.4c0.3-0.3,0.6-0.6,0.9-0.9
					c0.1-0.1,0.2-0.2,0.3-0.3l0.2-0.3c1.5-0.9,2.9-2.2,4.3-3.9l0.1-0.1l2.5-0.8l-1.6,1.5c-1.8,1.7-3,3.6-3.7,5.6l-0.1,0.2
					c-1.3,1.5-2.5,2.9-3.8,4.3c-3.1,2.9-5.4,5.5-7.4,8.2l-0.2,0.3c-1.2,1.2-2.2,2.5-3,3.8c-0.9,1.1-1.6,2.2-2.1,3.3
					c-2.9,3.8-5.2,6.9-7.1,9.9l-1.7,2.6c-5.1,7.8-10.4,15.9-13.7,25c-4.5,12.5-7.2,24.3-8.2,36.2c-0.3,3.1-0.6,6.3-0.9,9.4
					c-1,10.6-2,21.5-1.9,32.3c0.4,26,7.7,50.8,21.7,73.9c2.7,4.5,6.8,8.4,10.7,12.2c0.9,0.9,1.8,1.8,2.7,2.7c2.9,2.9,6,5.7,9,8.5
					c3,2.7,6.1,5.6,9.1,8.5c15.9,15.8,34.5,27.7,56.8,36.4c6.1,2.4,12,5.1,18.3,8.1c3,1.4,6.1,2.9,9.3,4.3l1.7,0.8l-1.8,0.2
					c-0.8,0.1-1.4,0.2-1.9,0.3C193,392.8,192.6,392.9,192.2,392.9z M93.8,114.8c-0.3,0.5-0.7,1.1-1,1.6c-0.4,0.7-0.8,1.4-1.4,1.9
					c-0.6,0.8-1.2,1.5-1.7,2.1c-1.5,2.2-3,4.6-4.5,6.9c-2.2,3.5-4.5,7.2-7.1,10.6c-8.7,11.6-14.2,25.5-17.3,43.8
					c-1.4,7.8-2.2,15.9-2.9,23.7c-0.4,3.9-0.8,7.9-1.3,11.9c-1.8,14.9-1.1,29.7,2,44c2.3,10.6,6,21.1,9.6,31.2l0,0.1
					c4.6,12.9,10.8,23,19,31c8.9,8.7,18.3,17.3,27.9,25.5c1.3,1.1,2.6,2.2,3.9,3.4c6.1,5.4,12.5,11,19.6,14.7
					c12.6,6.6,25.9,12.5,38.8,18.1c4.8,2.1,9.7,4.3,14.6,6.5c0.2,0.1,0.7,0,1.5-0.1c0.1,0,0.2,0,0.3,0c-2.7-1.2-5.2-2.4-7.7-3.6
					c-6.3-2.9-12.2-5.7-18.2-8.1c-22.4-8.7-41.1-20.7-57.2-36.6c-2.9-2.9-6-5.7-9-8.5c-3-2.7-6.1-5.6-9.1-8.5
					c-0.9-0.9-1.8-1.8-2.7-2.7c-3.9-3.8-8-7.8-10.8-12.4C64.7,288.1,57.4,263.1,57,237c-0.2-10.8,0.9-21.8,1.9-32.4
					c0.3-3.1,0.6-6.3,0.9-9.4c1-12,3.7-23.9,8.3-36.5c3.3-9.2,8.7-17.3,13.8-25.2l1.7-2.6c2-3,4.2-6.1,7.1-9.9
					c0.6-1.1,1.3-2.2,2.2-3.3c0.8-1.4,1.8-2.7,3-3.9c0.1-0.1,0.1-0.1,0.1-0.2c2-2.8,4.4-5.4,7.5-8.3c1.2-1.4,2.4-2.8,3.7-4.2
					c0.2-0.5,0.4-1,0.6-1.4c-0.2,0.2-0.4,0.3-0.6,0.4l0,0.1c-0.1,0.1-0.2,0.3-0.3,0.4c-0.3,0.3-0.6,0.7-0.9,1
					c-0.5,0.5-1.1,1-1.6,1.5c-0.2,0.1-0.4,0.3-0.6,0.4l-0.1,0.1c-1,1.1-1.9,2.1-2.8,3.1l-1.4,1.5c-0.3,1.2-1,2.1-1.9,2.8
					c0,0-0.1,0.1-0.1,0.1C96.6,112.3,95.4,113.6,93.8,114.8z"/>
			</g>
			<g>
				<path d="M192.2,392.9c-0.3,0-0.5,0-0.7-0.1c-4.8-2.2-9.8-4.4-14.6-6.5c-12.9-5.7-26.2-11.5-38.9-18.1
					c-7.2-3.8-13.6-9.4-19.8-14.8c-1.3-1.1-2.6-2.3-3.9-3.4c-9.6-8.2-19-16.8-27.9-25.5c-8.3-8.1-14.6-18.3-19.2-31.4l0-0.1
					c-3.6-10.2-7.4-20.7-9.7-31.4c-3.1-14.4-3.7-29.3-2-44.3c0.5-3.9,0.9-8,1.3-11.8c0.8-7.8,1.6-15.9,3-23.8
					c3.2-18.4,8.8-32.5,17.5-44.2c2.5-3.4,4.8-7,7-10.6c1.5-2.3,3-4.7,4.5-7c0.6-0.7,1.2-1.3,1.8-2.1c0.5-0.5,0.9-1.1,1.3-1.7
					c0.4-0.6,0.8-1.1,1.1-1.7l0.1-0.1c1.6-1.3,2.7-2.5,3.6-3.7c0.1-0.1,0.1-0.1,0.1-0.2l0.1-0.1c0.8-0.6,1.3-1.4,1.6-2.4l0-0.1
					l1.5-1.7c0.9-1,1.9-2.1,2.8-3.2l0.2-0.2c0.2-0.1,0.3-0.3,0.5-0.4c0.6-0.4,1.1-0.9,1.5-1.4c0.3-0.3,0.6-0.6,0.9-0.9
					c0.1-0.1,0.2-0.2,0.3-0.3l0.2-0.3c1.5-0.9,2.9-2.2,4.3-3.9l0.1-0.1l2.5-0.8l-1.6,1.5c-1.8,1.7-3,3.6-3.7,5.6l-0.1,0.2
					c-1.3,1.5-2.5,2.9-3.8,4.3c-3.1,2.9-5.4,5.5-7.4,8.2l-0.2,0.3c-1.2,1.2-2.2,2.5-3,3.8c-0.9,1.1-1.6,2.2-2.1,3.3
					c-2.9,3.8-5.2,6.9-7.1,9.9l-1.7,2.6c-5.1,7.8-10.4,15.9-13.7,25c-4.5,12.5-7.2,24.3-8.2,36.2c-0.3,3.1-0.6,6.3-0.9,9.4
					c-1,10.6-2,21.5-1.9,32.3c0.4,26,7.7,50.8,21.7,73.9c2.7,4.5,6.8,8.4,10.7,12.2c0.9,0.9,1.8,1.8,2.7,2.7c2.9,2.9,6,5.7,9,8.5
					c3,2.7,6.1,5.6,9.1,8.5c15.9,15.8,34.5,27.7,56.8,36.4c6.1,2.4,12,5.1,18.3,8.1c3,1.4,6.1,2.9,9.3,4.3l1.7,0.8l-1.8,0.2
					c-0.8,0.1-1.4,0.2-1.9,0.3C193,392.8,192.6,392.9,192.2,392.9z M93.8,114.8c-0.3,0.5-0.7,1.1-1,1.6c-0.4,0.7-0.8,1.4-1.4,1.9
					c-0.6,0.8-1.2,1.5-1.7,2.1c-1.5,2.2-3,4.6-4.5,6.9c-2.2,3.5-4.5,7.2-7.1,10.6c-8.7,11.6-14.2,25.5-17.3,43.8
					c-1.4,7.8-2.2,15.9-2.9,23.7c-0.4,3.9-0.8,7.9-1.3,11.9c-1.8,14.9-1.1,29.7,2,44c2.3,10.6,6,21.1,9.6,31.2l0,0.1
					c4.6,12.9,10.8,23,19,31c8.9,8.7,18.3,17.3,27.9,25.5c1.3,1.1,2.6,2.2,3.9,3.4c6.1,5.4,12.5,11,19.6,14.7
					c12.6,6.6,25.9,12.5,38.8,18.1c4.8,2.1,9.7,4.3,14.6,6.5c0.2,0.1,0.7,0,1.5-0.1c0.1,0,0.2,0,0.3,0c-2.7-1.2-5.2-2.4-7.7-3.6
					c-6.3-2.9-12.2-5.7-18.2-8.1c-22.4-8.7-41.1-20.7-57.2-36.6c-2.9-2.9-6-5.7-9-8.5c-3-2.7-6.1-5.6-9.1-8.5
					c-0.9-0.9-1.8-1.8-2.7-2.7c-3.9-3.8-8-7.8-10.8-12.4C64.7,288.1,57.4,263.1,57,237c-0.2-10.8,0.9-21.8,1.9-32.4
					c0.3-3.1,0.6-6.3,0.9-9.4c1-12,3.7-23.9,8.3-36.5c3.3-9.2,8.7-17.3,13.8-25.2l1.7-2.6c2-3,4.2-6.1,7.1-9.9
					c0.6-1.1,1.3-2.2,2.2-3.3c0.8-1.4,1.8-2.7,3-3.9c0.1-0.1,0.1-0.1,0.1-0.2c2-2.8,4.4-5.4,7.5-8.3c1.2-1.4,2.4-2.8,3.7-4.2
					c0.2-0.5,0.4-1,0.6-1.4c-0.2,0.2-0.4,0.3-0.6,0.4l0,0.1c-0.1,0.1-0.2,0.3-0.3,0.4c-0.3,0.3-0.6,0.7-0.9,1
					c-0.5,0.5-1.1,1-1.6,1.5c-0.2,0.1-0.4,0.3-0.6,0.4l-0.1,0.1c-1,1.1-1.9,2.1-2.8,3.1l-1.4,1.5c-0.3,1.2-1,2.1-1.9,2.8
					c0,0-0.1,0.1-0.1,0.1C96.6,112.3,95.4,113.6,93.8,114.8z"/>
				<path d="M192.2,393.4c-0.4,0-0.7-0.1-1-0.2c-4.9-2.2-9.8-4.4-14.6-6.5c-12.9-5.7-26.2-11.5-38.9-18.2
					c-7.3-3.8-13.7-9.4-19.9-14.9l-0.1-0.1c-1.3-1.1-2.5-2.2-3.8-3.3c-9.6-8.2-19-16.8-27.9-25.6c-8.3-8.1-14.7-18.5-19.4-31.6
					l0-0.1c-3.6-10.2-7.4-20.7-9.7-31.4c-3.1-14.4-3.8-29.4-2-44.5c0.5-4,0.9-8,1.3-11.8c0.8-7.9,1.6-15.9,3-23.8
					C62.4,163,68,148.9,76.8,137c2.5-3.4,4.8-7,7-10.5c1.5-2.3,3-4.7,4.5-7c0.6-0.7,1.2-1.4,1.8-2.2c0.5-0.5,0.9-1,1.2-1.6
					c0.4-0.6,0.8-1.2,1.1-1.7l0.2-0.2c1.6-1.3,2.7-2.5,3.6-3.6c0.1-0.1,0.1-0.2,0.2-0.2l0.1-0.1c0.7-0.5,1.2-1.3,1.4-2.1l0.1-0.2
					l1.6-1.8c0.9-1,1.9-2.1,2.8-3.2l0.3-0.2c0.2-0.1,0.4-0.3,0.5-0.4c0.5-0.4,1-0.9,1.5-1.4c0.3-0.3,0.6-0.6,0.9-0.9
					c0.1-0.1,0.1-0.2,0.2-0.3l0.4-0.4c1.5-0.9,2.8-2.1,4.1-3.8l0.2-0.2l4.8-1.6l-3.2,3.1c-1.8,1.7-2.9,3.4-3.6,5.4l-0.1,0.2
					c-1.3,1.5-2.6,3-3.8,4.4c-3.1,2.9-5.4,5.5-7.4,8.2l-0.2,0.2c-1.2,1.2-2.2,2.5-3,3.8c-0.9,1.1-1.6,2.2-2.1,3.2
					c-3,3.9-5.2,7-7.1,9.9l-1.7,2.6c-5.1,7.8-10.4,15.8-13.7,24.9c-4.5,12.4-7.2,24.2-8.2,36.1c-0.3,3.1-0.6,6.3-0.9,9.4
					c-1,10.6-2,21.6-1.9,32.3c0.4,25.9,7.7,50.7,21.6,73.7c2.7,4.5,6.7,8.4,10.6,12.1c1,0.9,1.9,1.8,2.7,2.7c2.9,2.9,6,5.7,9,8.4
					c3.1,2.8,6.2,5.6,9.1,8.5c15.9,15.8,34.4,27.6,56.6,36.3c6.1,2.4,12,5.2,18.3,8.1c3,1.4,6,2.8,9.3,4.3l3.4,1.5l-3.7,0.4
					c-0.8,0.1-1.4,0.2-1.9,0.3C193,393.3,192.6,393.4,192.2,393.4z M188,390.6c1.2,0.6,2.5,1.1,3.7,1.7c0.3,0.2,0.8,0.1,1.6,0
					c-0.4,0.1-0.8,0.1-1,0.1l0,0c-0.2,0-0.4,0-0.5-0.1C190.4,391.7,189.2,391.2,188,390.6z M192.5,390.6c0.4,0.2,0.9,0.4,1.3,0.6
					l1.5,0.7l-1.4,0.2c0.4-0.1,0.9-0.1,1.5-0.2C194.4,391.5,193.4,391.1,192.5,390.6z M167.5,380.5c3.3,1.5,6.7,3,10,4.4
					c2.4,1,4.9,2.2,7.5,3.3C178.9,385.4,173.3,382.7,167.5,380.5C167.5,380.5,167.5,380.5,167.5,380.5z M118.8,353.2
					c6.1,5.3,12.4,10.8,19.5,14.5c11.4,6,23.4,11.3,35.1,16.5c-11.7-5.2-23.7-10.5-35.1-16.5C131.2,364,124.9,358.5,118.8,353.2z
					 M69,293.6c4.5,12.3,10.6,22,18.5,29.7c8.9,8.7,18.3,17.3,27.8,25.5c1.3,1.1,2.6,2.2,3.9,3.4c6.1,5.4,12.5,10.9,19.5,14.6
					c2.2,1.1,4.4,2.2,6.6,3.3c-13-7.2-24.7-16-35.1-26.4c-2.9-2.9-6-5.7-9-8.4c-3.1-2.8-6.2-5.6-9.1-8.6c-0.9-0.9-1.8-1.7-2.7-2.6
					c-4-3.9-8.1-7.9-11-12.6C74.8,305.7,71.7,299.7,69,293.6z M126.1,356.4c4.1,3.2,8.4,6.1,12.9,8.9
					C134.6,362.5,130.3,359.6,126.1,356.4z M116.5,351.2c0.6,0.5,1.3,1.1,1.9,1.6l0.1,0.1C117.8,352.3,117.2,351.8,116.5,351.2z
					 M103.8,336.4c2.1,1.9,4.3,3.9,6.3,5.9C108,340.3,105.9,338.3,103.8,336.4z M75.6,309.9c3.2,5.4,6.9,10.1,11.2,14.2
					c6,5.8,12.2,11.6,18.5,17.3c-6.3-5.7-12.5-11.4-18.5-17.3C82.5,319.9,78.8,315.2,75.6,309.9z M93.8,327.1c1.4,1.3,2.8,2.7,4.2,4
					C96.6,329.8,95.2,328.5,93.8,327.1z M89.9,323.3c0,0,0.1,0.1,0.1,0.1c0.5,0.5,1,0.9,1.4,1.4c-0.4-0.4-0.9-0.9-1.4-1.3
					C90,323.4,89.9,323.4,89.9,323.3z M80.8,313.5c2.5,3.4,5.6,6.4,8.6,9.4C86.4,319.9,83.3,316.9,80.8,313.5z M59.8,199.9
					c-0.1,1.5-0.3,3-0.4,4.5l0,0.2c-1,10.6-2,21.6-1.9,32.3c0.3,21.8,5.5,42.9,15.5,62.8C63,279.9,57.8,258.8,57.5,237
					c-0.2-10.8,0.9-21.7,1.9-32.3C59.5,203,59.7,201.5,59.8,199.9z M58.9,198.7c-0.2,2.3-0.5,4.6-0.7,6.8c-0.4,3.9-0.8,7.9-1.3,11.9
					c-1.8,14.9-1.1,29.6,1.9,43.8c0,0.1,0.1,0.3,0.1,0.4c-1.5-8.1-2.4-16.3-2.5-24.6c-0.2-10.8,0.9-21.8,1.9-32.5l0-0.2
					C58.6,202.5,58.7,200.6,58.9,198.7z M62.3,171.3c-0.8,3.3-1.5,6.7-2.2,10.4c-1.4,7.8-2.2,15.9-2.9,23.7
					c-0.4,3.9-0.8,7.9-1.3,11.9c-0.1,0.7-0.2,1.3-0.2,2c0.1-0.7,0.1-1.3,0.2-2c0.5-4,0.9-8,1.3-11.9c0.8-7.8,1.6-15.9,2.9-23.8
					C60.8,178.1,61.5,174.6,62.3,171.3z M76.2,141.4c-6.5,9.6-11,20.9-13.9,34.8c1.4-5.8,3.1-11.7,5.3-17.7
					C69.8,152.4,72.8,146.8,76.2,141.4z M82.9,132.9l-0.6,0.9c-5.1,7.8-10.5,15.9-13.8,25.1c-1.2,3.3-2.2,6.5-3.2,9.7
					c0.9-3.2,2-6.4,3.2-9.7c3.3-9.2,8.6-17.2,13.8-25.1L82.9,132.9z M80,134.3c-0.8,1.1-1.6,2.3-2.4,3.4c-0.1,0.1-0.1,0.2-0.2,0.3
					c0.1-0.1,0.1-0.2,0.2-0.3C78.4,136.5,79.2,135.4,80,134.3z M91.1,121.2c-2.3,3-4.2,5.7-5.9,8.1
					C86.9,126.9,88.8,124.3,91.1,121.2C91.1,121.2,91.1,121.2,91.1,121.2L91.1,121.2z M87.6,122.5c-1,1.5-1.9,3-2.9,4.5
					c-0.4,0.7-0.8,1.3-1.2,2c0.4-0.7,0.8-1.3,1.2-2C85.6,125.6,86.6,124,87.6,122.5z M90.8,119.7c-0.3,0.4-0.6,0.7-0.9,1
					c-0.7,1-1.3,2-2,3c0.7-1,1.5-2,2.3-3.1C90.4,120.4,90.6,120,90.8,119.7z M90.1,119c-0.3,0.4-0.6,0.7-0.9,1.1c0,0,0,0,0,0
					C89.5,119.8,89.8,119.4,90.1,119z M93.3,117.9c-0.1,0.1-0.2,0.3-0.3,0.4C93.1,118.2,93.2,118.1,93.3,117.9
					C93.3,117.9,93.3,117.9,93.3,117.9z M92.1,116.5c-0.3,0.6-0.7,1.1-1.2,1.5c0,0,0,0,0,0C91.4,117.5,91.8,117,92.1,116.5z
					 M96.1,114.2c-1.1,1.1-2,2.3-2.7,3.5C94.1,116.5,95.1,115.4,96.1,114.2z M94.1,113.9c-0.2,0.2-0.5,0.4-0.7,0.6l-0.1,0.1
					c-0.3,0.5-0.6,1-1.1,1.6c0,0,0,0,0,0c0.4-0.6,0.7-1.1,1.1-1.6l0.1-0.1C93.7,114.3,93.9,114.1,94.1,113.9z M104.2,105.2
					c-0.1,0.1-0.2,0.3-0.4,0.4c-3.1,2.9-5.5,5.5-7.5,8.3c0,0,0,0.1-0.1,0.1l0,0l0.1-0.2c2-2.8,4.4-5.4,7.5-8.3
					C104,105.5,104.1,105.3,104.2,105.2z M103.3,103.1l-0.1,0.1c-0.9,1-1.9,2.1-2.8,3.1l-0.7,0.7l0.7-0.7
					C101.3,105.3,102.2,104.2,103.3,103.1L103.3,103.1z M104.3,103.6c-0.1,0.1-0.2,0.2-0.3,0.3l-0.1,0.1c-0.6,0.7-1.3,1.5-2,2.2
					c0.4-0.4,0.8-0.8,1.3-1.2C103.5,104.5,103.9,104,104.3,103.6z M103.8,102.7c-0.1,0.1-0.3,0.2-0.4,0.3
					C103.5,102.9,103.7,102.8,103.8,102.7z M108.1,100.2c-0.2,0.3-0.3,0.7-0.4,1.1l-0.1,0.2c-0.4,0.4-0.7,0.8-1.1,1.2
					c0.4-0.4,0.8-0.9,1.1-1.3l0-0.1C107.7,100.9,107.9,100.5,108.1,100.2z M106.3,100.3c-0.2,0.2-0.4,0.4-0.6,0.6
					C105.9,100.7,106.1,100.5,106.3,100.3z M109.1,98.1l-0.8,1.6c0.7-1.4,1.8-2.8,3.2-4.1l-0.3,0.1c-1.2,1.5-2.4,2.6-3.7,3.5
					L109.1,98.1z"/>
			</g>
		</g>
		<g>
			<g>
				<path d="M439.5,57c-13.6-8.8-28.1-15.3-44.8-14.3c-5.8,0.3-11.7,0.7-17.4,1.7c-22.7,3.8-42.7,13.5-59.6,29.2
					c-3.7,3.5-6.6,4.1-10.9,2.4c-19.9-7.5-39.4-16-59.7-21.8c-29-8.2-58.2-9-86.1,5.3c-1.4,0.7-2.9,1.4-4.4,2
					c-0.1,0.1-0.2,0.2-0.3,0.3c-1.1,0.8-2.5,1.4-3.9,1.6c-0.6,0.4-1.3,0.7-2,1c-0.8,0.5-1.6,1-2.5,1.5c0.6,0.4,1.1,0.8,1.6,1.2
					c1.5-0.7,2.8-1.4,4.1-2c0.9-0.5,1.9-1,2.9-1.4c0.5-0.2,1.1-0.5,1.6-0.7c8.8-3.5,17.4-8.3,26.5-10c27.5-5.1,54.3-1.3,80.3,8.8
					c13.9,5.4,27.8,10.9,41.8,16.2c4.5,1.7,8.1,1.3,12-2.6c5.6-5.5,12.1-10.6,18.9-14.5c12.7-7.3,26.3-12.4,41-15
					c20.1-3.5,38.7-0.4,56.1,10.1c3.3,2,6.1,4.9,9.2,7.3c-34.6-7.5-90.5,24.1-91.3,52.3c1-1.2,1.6-2.6,2.3-3.9
					c9.2-18.5,23.2-32.3,42.3-39.8c9.9-3.9,20.9-5.2,31.5-7.1c5.5-0.9,11.9-1.6,15.7,3.8c4.2,6,0,11.8-2.1,17.4
					c-0.1,0.2-0.1,0.3-0.2,0.4c-11,15.8-21.2,32.4-33.4,47.2c-9,11-11,21.7-7,34.6c4.2,13.5,8.6,27,11.7,40.7
					c2.7,11.8,3.5,24,5.4,35.9c0.5,3.1,1.5,6.5,3.4,9.1c16.8,23.5,15.7,55.3-2.4,77.8c-7.4,9.2-16.3,16.4-27.3,20
					c-7.3,2.4-15.2,3.1-22.9,3.9c-6,0.6-12.1,0.1-18.9,0.1c1.3,0.7,2.1,1.5,2.8,1.5c12.7,0.8,25.6,2,37.6-2.7
					c21.7-8.5,37.1-23,42.4-47c4.5-20.3,3-38.9-10.3-55.7c-1.6-2-1.9-5.2-2.4-7.9c-2.7-15.4-4.7-30.9-8-46.1
					c-2.7-12.3-7.2-24.2-10.4-36.4c-2.4-9.3-0.3-17.7,6.6-24.8c2.2-2.2,3.9-4.9,5.8-7.5c9.3-13.2,18.7-26.3,27.6-39.7
					c2.7-4.1,4.9-8.7,6.2-13.4C450.9,67.7,446.2,61.3,439.5,57z"/>
				<path d="M369.7,358.9C369.7,358.9,369.7,358.9,369.7,358.9c-4.8,0-9.7-0.3-14.4-0.6l-1.8-0.1c-0.6,0-1.2-0.4-1.9-0.8
					c-0.3-0.2-0.7-0.5-1.2-0.7l-1.7-0.9h2c2.2,0,4.2,0,6.3,0.1c1.9,0,3.8,0.1,5.6,0.1c2.7,0,4.9-0.1,6.9-0.3l1-0.1
					c7.3-0.7,14.9-1.5,21.9-3.8c10.2-3.4,19-9.9,27.1-19.9c17.9-22.3,18.9-54.1,2.4-77.2c-2.1-2.9-3-6.7-3.5-9.3
					c-0.7-4.5-1.3-9.1-1.9-13.6c-0.9-7.4-1.9-15-3.5-22.3c-2.6-11.5-6.2-22.9-9.6-34c-0.7-2.2-1.4-4.5-2.1-6.7
					c-4.1-13.3-1.9-24.2,7.1-35.1c8.5-10.4,16.2-21.8,23.6-32.8c3.2-4.7,6.5-9.6,9.8-14.4c0.1-0.1,0.1-0.2,0.2-0.3
					c0.4-1.2,0.9-2.3,1.4-3.5c2-4.6,3.9-8.9,0.7-13.5c-2-2.9-4.9-4.2-9.1-4.2c-2,0-4.1,0.3-6,0.6c-1.7,0.3-3.4,0.6-5.1,0.9
					c-8.8,1.4-18,2.9-26.2,6.2c-18.4,7.2-32.6,20.5-42,39.5l-0.1,0.3c-0.6,1.3-1.3,2.6-2.2,3.7l-0.9,1.1l0-1.4
					c0.3-12,10.5-25.4,27.8-36.6c16.7-10.8,36.4-17.3,52.9-17.3c3.2,0,6.3,0.3,9.3,0.8c-0.5-0.4-0.9-0.8-1.4-1.2
					c-2-1.7-4-3.5-6.3-4.9C422,49,408.4,45.2,394.1,45.2c-5,0-10.1,0.5-15.4,1.4c-14.2,2.5-27.9,7.5-40.9,14.9
					c-6.5,3.7-13,8.7-18.8,14.4c-2.6,2.5-5,3.7-7.8,3.7c-1.5,0-3-0.3-4.8-1c-12.6-4.8-25.3-9.8-37.7-14.6l-4.1-1.6
					c-18.8-7.3-37.5-11-55.5-11c-8.2,0-16.5,0.8-24.5,2.3c-6.4,1.2-12.6,4-18.6,6.7c-2.5,1.1-5.2,2.3-7.8,3.3
					c-0.5,0.2-1.1,0.5-1.6,0.7c-1.2,0.5-2.1,0.9-2.8,1.3l-1.1,0.6c-1,0.5-2,1-3,1.5l-0.3,0.1l-0.2-0.2c-0.5-0.4-1-0.8-1.5-1.2
					l-0.7-0.4l0.7-0.4c0.7-0.4,1.3-0.8,1.9-1.2L150,64c0.6-0.3,1.2-0.6,2-1l0.2-0.1c1.3-0.2,2.6-0.7,3.7-1.5
					c0.1-0.1,0.1-0.1,0.2-0.2l0.3-0.2c1.7-0.7,3.1-1.3,4.4-2c14.6-7.5,30.5-11.2,47.3-11.2c12.3,0,25.1,1.9,39.1,5.9
					c14.6,4.1,29.1,9.8,43,15.3c5.5,2.2,11.2,4.4,16.8,6.5c1.5,0.6,2.8,0.8,3.9,0.8c2.2,0,4.1-0.9,6.5-3.2
					c16.8-15.7,36.9-25.5,59.8-29.3c5.9-1,12-1.3,17.4-1.7c1.1-0.1,2.3-0.1,3.4-0.1c13.4,0,26.2,4.5,41.7,14.5
					c8.2,5.3,11.4,12.2,9.2,19.9c-1.3,4.7-3.5,9.4-6.3,13.6c-7,10.4-14.3,20.8-21.4,30.9c-2.1,2.9-4.2,5.9-6.2,8.8l-0.8,1.1
					c-1.5,2.2-3.1,4.5-5,6.4c-6.7,6.9-8.9,15.1-6.5,24.4c1.3,5.1,2.9,10.2,4.5,15.2c2.1,6.9,4.4,14.1,5.9,21.2
					c2.2,10,3.8,20.3,5.4,30.3c0.8,5.2,1.7,10.5,2.6,15.8c0.1,0.3,0.1,0.7,0.2,1.1c0.4,2.4,0.8,5,2.1,6.6
					c12.2,15.4,15.5,33.2,10.4,56.1c-5,22.5-19,38-42.7,47.3C385.2,357.8,378.4,358.9,369.7,358.9z M352.5,356.7
					c0.4,0.3,0.8,0.5,1.1,0.5l1.8,0.1c4.7,0.3,9.6,0.6,14.3,0.6c0,0,0,0,0,0c8.5,0,15.3-1.1,21.2-3.4c23.4-9.2,37.2-24.5,42.1-46.6
					c5-22.6,1.8-40.2-10.2-55.3c-1.5-1.9-1.9-4.6-2.3-7.1c-0.1-0.4-0.1-0.7-0.2-1c-0.9-5.3-1.8-10.6-2.6-15.8
					c-1.6-10-3.2-20.3-5.4-30.3c-1.6-7.1-3.8-14.3-5.9-21.2c-1.5-5-3.1-10.1-4.5-15.3c-2.5-9.6-0.3-18.1,6.7-25.3
					c1.8-1.9,3.4-4.1,4.9-6.3l0.8-1.1c2.1-2.9,4.1-5.9,6.2-8.8c7.1-10.1,14.4-20.5,21.4-30.9c2.7-4.1,4.9-8.7,6.1-13.3
					c2.5-9.2-3.4-15.3-8.8-18.8c-15.3-9.9-28-14.3-41.2-14.3c-1.1,0-2.3,0-3.4,0.1c-5.4,0.3-11.5,0.7-17.3,1.7
					c-22.7,3.8-42.7,13.6-59.3,29.1c-2.6,2.4-4.7,3.4-7.1,3.4c-1.3,0-2.7-0.3-4.3-0.9c-5.6-2.1-11.3-4.3-16.8-6.5
					c-13.9-5.5-28.3-11.1-42.9-15.2c-13.9-3.9-26.6-5.8-38.9-5.8c-16.9,0-32.3,3.6-46.9,11.1c-1.3,0.7-2.8,1.3-4.4,2l-0.1,0.1
					c-0.1,0.1-0.2,0.1-0.2,0.2c-1.2,0.9-2.6,1.5-4,1.7c-0.7,0.5-1.3,0.8-1.9,1l-0.4,0.3c-0.4,0.3-0.9,0.5-1.3,0.8
					c0.3,0.2,0.5,0.4,0.8,0.6c0.9-0.5,1.8-0.9,2.7-1.3l1.1-0.5c0.8-0.5,1.8-0.9,2.9-1.4c0.5-0.2,1.1-0.5,1.6-0.7
					c2.6-1,5.2-2.2,7.7-3.3c6.1-2.7,12.4-5.5,18.9-6.7c8.1-1.5,16.4-2.3,24.7-2.3c18.2,0,37,3.7,55.9,11.1l4.1,1.6
					c12.3,4.8,25.1,9.8,37.7,14.6c1.7,0.6,3.1,0.9,4.4,0.9c2.5,0,4.7-1.1,7.1-3.4c6-5.8,12.4-10.7,19-14.5
					c13.1-7.5,26.9-12.5,41.2-15c5.3-0.9,10.5-1.4,15.5-1.4c14.5,0,28.2,3.9,41,11.5c2.3,1.4,4.4,3.2,6.4,5c0.9,0.8,1.9,1.6,2.8,2.4
					l1.6,1.3l-2-0.4c-3.4-0.7-7.1-1.1-11-1.1c-16.3,0-35.9,6.4-52.4,17.1c-15.9,10.3-25.9,22.9-27.2,34.1c0.4-0.7,0.7-1.4,1.1-2.1
					l0.1-0.3c9.6-19.2,23.9-32.7,42.6-40c8.4-3.3,17.6-4.8,26.5-6.2c1.7-0.3,3.4-0.6,5.1-0.9c2-0.3,4.1-0.6,6.2-0.6
					c4.5,0,7.8,1.5,10,4.6c3.5,5,1.4,9.8-0.6,14.5c-0.5,1.1-1,2.3-1.4,3.4c-0.1,0.2-0.2,0.4-0.3,0.6c-3.3,4.7-6.6,9.6-9.8,14.3
					c-7.4,11.1-15.1,22.5-23.7,32.9c-8.8,10.7-10.9,21.2-6.9,34.2c0.7,2.2,1.4,4.4,2.1,6.7c3.5,11.1,7.1,22.6,9.7,34.1
					c1.7,7.4,2.6,15,3.5,22.4c0.6,4.5,1.1,9.1,1.9,13.6c0.4,2.5,1.3,6.1,3.3,8.9c16.8,23.5,15.8,55.8-2.4,78.4
					c-8.2,10.2-17.2,16.8-27.6,20.2c-7,2.3-14.7,3.1-22.1,3.8l-1,0.1c-2.1,0.2-4.3,0.3-7,0.3c-1.8,0-3.7,0-5.7-0.1
					C355.5,356.7,354,356.7,352.5,356.7z"/>
			</g>
			<g>
				<path d="M369.7,358.9C369.7,358.9,369.7,358.9,369.7,358.9c-4.8,0-9.7-0.3-14.4-0.6l-1.8-0.1c-0.6,0-1.2-0.4-1.9-0.8
					c-0.3-0.2-0.7-0.5-1.2-0.7l-1.7-0.9h2c2.2,0,4.2,0,6.3,0.1c1.9,0,3.8,0.1,5.6,0.1c2.7,0,4.9-0.1,6.9-0.3l1-0.1
					c7.3-0.7,14.9-1.5,21.9-3.8c10.2-3.4,19-9.9,27.1-19.9c17.9-22.3,18.9-54.1,2.4-77.2c-2.1-2.9-3-6.7-3.5-9.3
					c-0.7-4.5-1.3-9.1-1.9-13.6c-0.9-7.4-1.9-15-3.5-22.3c-2.6-11.5-6.2-22.9-9.6-34c-0.7-2.2-1.4-4.5-2.1-6.7
					c-4.1-13.3-1.9-24.2,7.1-35.1c8.5-10.4,16.2-21.8,23.6-32.8c3.2-4.7,6.5-9.6,9.8-14.4c0.1-0.1,0.1-0.2,0.2-0.3
					c0.4-1.2,0.9-2.3,1.4-3.5c2-4.6,3.9-8.9,0.7-13.5c-2-2.9-4.9-4.2-9.1-4.2c-2,0-4.1,0.3-6,0.6c-1.7,0.3-3.4,0.6-5.1,0.9
					c-8.8,1.4-18,2.9-26.2,6.2c-18.4,7.2-32.6,20.5-42,39.5l-0.1,0.3c-0.6,1.3-1.3,2.6-2.2,3.7l-0.9,1.1l0-1.4
					c0.3-12,10.5-25.4,27.8-36.6c16.7-10.8,36.4-17.3,52.9-17.3c3.2,0,6.3,0.3,9.3,0.8c-0.5-0.4-0.9-0.8-1.4-1.2
					c-2-1.7-4-3.5-6.3-4.9C422,49,408.4,45.2,394.1,45.2c-5,0-10.1,0.5-15.4,1.4c-14.2,2.5-27.9,7.5-40.9,14.9
					c-6.5,3.7-13,8.7-18.8,14.4c-2.6,2.5-5,3.7-7.8,3.7c-1.5,0-3-0.3-4.8-1c-12.6-4.8-25.3-9.8-37.7-14.6l-4.1-1.6
					c-18.8-7.3-37.5-11-55.5-11c-8.2,0-16.5,0.8-24.5,2.3c-6.4,1.2-12.6,4-18.6,6.7c-2.5,1.1-5.2,2.3-7.8,3.3
					c-0.5,0.2-1.1,0.5-1.6,0.7c-1.2,0.5-2.1,0.9-2.8,1.3l-1.1,0.6c-1,0.5-2,1-3,1.5l-0.3,0.1l-0.2-0.2c-0.5-0.4-1-0.8-1.5-1.2
					l-0.7-0.4l0.7-0.4c0.7-0.4,1.3-0.8,1.9-1.2L150,64c0.6-0.3,1.2-0.6,2-1l0.2-0.1c1.3-0.2,2.6-0.7,3.7-1.5
					c0.1-0.1,0.1-0.1,0.2-0.2l0.3-0.2c1.7-0.7,3.1-1.3,4.4-2c14.6-7.5,30.5-11.2,47.3-11.2c12.3,0,25.1,1.9,39.1,5.9
					c14.6,4.1,29.1,9.8,43,15.3c5.5,2.2,11.2,4.4,16.8,6.5c1.5,0.6,2.8,0.8,3.9,0.8c2.2,0,4.1-0.9,6.5-3.2
					c16.8-15.7,36.9-25.5,59.8-29.3c5.9-1,12-1.3,17.4-1.7c1.1-0.1,2.3-0.1,3.4-0.1c13.4,0,26.2,4.5,41.7,14.5
					c8.2,5.3,11.4,12.2,9.2,19.9c-1.3,4.7-3.5,9.4-6.3,13.6c-7,10.4-14.3,20.8-21.4,30.9c-2.1,2.9-4.2,5.9-6.2,8.8l-0.8,1.1
					c-1.5,2.2-3.1,4.5-5,6.4c-6.7,6.9-8.9,15.1-6.5,24.4c1.3,5.1,2.9,10.2,4.5,15.2c2.1,6.9,4.4,14.1,5.9,21.2
					c2.2,10,3.8,20.3,5.4,30.3c0.8,5.2,1.7,10.5,2.6,15.8c0.1,0.3,0.1,0.7,0.2,1.1c0.4,2.4,0.8,5,2.1,6.6
					c12.2,15.4,15.5,33.2,10.4,56.1c-5,22.5-19,38-42.7,47.3C385.2,357.8,378.4,358.9,369.7,358.9z M352.5,356.7
					c0.4,0.3,0.8,0.5,1.1,0.5l1.8,0.1c4.7,0.3,9.6,0.6,14.3,0.6c0,0,0,0,0,0c8.5,0,15.3-1.1,21.2-3.4c23.4-9.2,37.2-24.5,42.1-46.6
					c5-22.6,1.8-40.2-10.2-55.3c-1.5-1.9-1.9-4.6-2.3-7.1c-0.1-0.4-0.1-0.7-0.2-1c-0.9-5.3-1.8-10.6-2.6-15.8
					c-1.6-10-3.2-20.3-5.4-30.3c-1.6-7.1-3.8-14.3-5.9-21.2c-1.5-5-3.1-10.1-4.5-15.3c-2.5-9.6-0.3-18.1,6.7-25.3
					c1.8-1.9,3.4-4.1,4.9-6.3l0.8-1.1c2.1-2.9,4.1-5.9,6.2-8.8c7.1-10.1,14.4-20.5,21.4-30.9c2.7-4.1,4.9-8.7,6.1-13.3
					c2.5-9.2-3.4-15.3-8.8-18.8c-15.3-9.9-28-14.3-41.2-14.3c-1.1,0-2.3,0-3.4,0.1c-5.4,0.3-11.5,0.7-17.3,1.7
					c-22.7,3.8-42.7,13.6-59.3,29.1c-2.6,2.4-4.7,3.4-7.1,3.4c-1.3,0-2.7-0.3-4.3-0.9c-5.6-2.1-11.3-4.3-16.8-6.5
					c-13.9-5.5-28.3-11.1-42.9-15.2c-13.9-3.9-26.6-5.8-38.9-5.8c-16.9,0-32.3,3.6-46.9,11.1c-1.3,0.7-2.8,1.3-4.4,2l-0.1,0.1
					c-0.1,0.1-0.2,0.1-0.2,0.2c-1.2,0.9-2.6,1.5-4,1.7c-0.7,0.5-1.3,0.8-1.9,1l-0.4,0.3c-0.4,0.3-0.9,0.5-1.3,0.8
					c0.3,0.2,0.5,0.4,0.8,0.6c0.9-0.5,1.8-0.9,2.7-1.3l1.1-0.5c0.8-0.5,1.8-0.9,2.9-1.4c0.5-0.2,1.1-0.5,1.6-0.7
					c2.6-1,5.2-2.2,7.7-3.3c6.1-2.7,12.4-5.5,18.9-6.7c8.1-1.5,16.4-2.3,24.7-2.3c18.2,0,37,3.7,55.9,11.1l4.1,1.6
					c12.3,4.8,25.1,9.8,37.7,14.6c1.7,0.6,3.1,0.9,4.4,0.9c2.5,0,4.7-1.1,7.1-3.4c6-5.8,12.4-10.7,19-14.5
					c13.1-7.5,26.9-12.5,41.2-15c5.3-0.9,10.5-1.4,15.5-1.4c14.5,0,28.2,3.9,41,11.5c2.3,1.4,4.4,3.2,6.4,5c0.9,0.8,1.9,1.6,2.8,2.4
					l1.6,1.3l-2-0.4c-3.4-0.7-7.1-1.1-11-1.1c-16.3,0-35.9,6.4-52.4,17.1c-15.9,10.3-25.9,22.9-27.2,34.1c0.4-0.7,0.7-1.4,1.1-2.1
					l0.1-0.3c9.6-19.2,23.9-32.7,42.6-40c8.4-3.3,17.6-4.8,26.5-6.2c1.7-0.3,3.4-0.6,5.1-0.9c2-0.3,4.1-0.6,6.2-0.6
					c4.5,0,7.8,1.5,10,4.6c3.5,5,1.4,9.8-0.6,14.5c-0.5,1.1-1,2.3-1.4,3.4c-0.1,0.2-0.2,0.4-0.3,0.6c-3.3,4.7-6.6,9.6-9.8,14.3
					c-7.4,11.1-15.1,22.5-23.7,32.9c-8.8,10.7-10.9,21.2-6.9,34.2c0.7,2.2,1.4,4.4,2.1,6.7c3.5,11.1,7.1,22.6,9.7,34.1
					c1.7,7.4,2.6,15,3.5,22.4c0.6,4.5,1.1,9.1,1.9,13.6c0.4,2.5,1.3,6.1,3.3,8.9c16.8,23.5,15.8,55.8-2.4,78.4
					c-8.2,10.2-17.2,16.8-27.6,20.2c-7,2.3-14.7,3.1-22.1,3.8l-1,0.1c-2.1,0.2-4.3,0.3-7,0.3c-1.8,0-3.7,0-5.7-0.1
					C355.5,356.7,354,356.7,352.5,356.7z"/>
				<path d="M369.7,359.4L369.7,359.4c-4.8,0-9.7-0.3-14.4-0.7l-1.8-0.1c-0.8-0.1-1.4-0.5-2.1-0.9c-0.3-0.2-0.7-0.5-1.1-0.7
					l-3.4-1.9h3.9c2.2,0,4.4,0.1,6.3,0.1c1.9,0,3.8,0.1,5.6,0.1c2.7,0,4.9-0.1,6.9-0.3l1-0.1c7.3-0.7,14.9-1.5,21.8-3.8
					c10.1-3.3,18.9-9.8,26.9-19.7c17.8-22.1,18.7-53.6,2.3-76.6c-2.1-3-3.1-6.8-3.5-9.5c-0.7-4.5-1.3-9.2-1.9-13.6
					c-0.9-7.3-1.9-14.9-3.5-22.2c-2.6-11.4-6.2-22.9-9.6-34c-0.7-2.2-1.4-4.5-2.1-6.7c-4.2-13.5-2-24.5,7.2-35.6
					c8.5-10.4,16.2-21.7,23.6-32.8l0.1-0.1c3.2-4.7,6.4-9.6,9.7-14.3c0-0.1,0.1-0.1,0.1-0.2c0.4-1.2,1-2.4,1.4-3.5
					c2-4.5,3.8-8.7,0.8-13c-1.9-2.7-4.7-4-8.7-4c-2,0-4,0.3-5.9,0.6c-1.7,0.3-3.4,0.6-5.1,0.9c-8.8,1.4-17.9,2.9-26.1,6.1
					c-18.3,7.2-32.4,20.4-41.8,39.3l-0.1,0.3c-0.6,1.3-1.3,2.6-2.3,3.8l-1.8,2.2l0.1-2.9c0.3-12.2,10.5-25.7,28-37
					c16.7-10.9,36.6-17.4,53.2-17.4c2.6,0,5.2,0.2,7.6,0.5l0,0c-2-1.7-4-3.5-6.2-4.8c-12.5-7.5-26-11.3-40.2-11.3
					c-4.9,0-10.1,0.5-15.3,1.4c-14.1,2.5-27.8,7.4-40.7,14.8c-6.4,3.7-12.9,8.6-18.7,14.3c-2.7,2.6-5.2,3.8-8.1,3.8
					c-1.5,0-3.1-0.3-5-1c-12.6-4.8-25.3-9.8-37.7-14.6l-4.1-1.6c-18.7-7.3-37.3-11-55.3-11c-8.2,0-16.4,0.8-24.4,2.3
					c-6.3,1.2-12.5,3.9-18.5,6.6c-2.5,1.1-5.2,2.3-7.8,3.4c-0.5,0.2-1.1,0.5-1.6,0.7c-1.1,0.4-2,0.9-2.8,1.3l-1.1,0.6
					c-1,0.5-2,1-3,1.5l-0.6,0.3l-0.5-0.5c-0.4-0.4-0.9-0.8-1.5-1.1l-1.4-0.9l1.4-0.8c0.7-0.4,1.3-0.8,1.9-1.2l0.5-0.3
					c0.7-0.3,1.2-0.6,2-1l0.3-0.1c1.3-0.2,2.5-0.7,3.5-1.5c0.1,0,0.1-0.1,0.2-0.1l0.4-0.3c1.6-0.7,3.1-1.3,4.4-2
					c14.6-7.5,30.6-11.3,47.6-11.3c12.4,0,25.2,1.9,39.3,5.9c14.6,4.1,29.1,9.8,43.1,15.3c5.5,2.2,11.2,4.4,16.8,6.5
					c1.5,0.6,2.7,0.8,3.8,0.8c2,0,3.8-0.9,6.1-3c16.9-15.7,37.1-25.6,60.1-29.4c5.9-1,12.1-1.3,17.5-1.7c1.2-0.1,2.3-0.1,3.5-0.1
					c13.5,0,26.4,4.5,42,14.5c8.4,5.4,11.6,12.5,9.5,20.4c-1.3,4.8-3.5,9.5-6.3,13.7c-7,10.4-14.3,20.8-21.4,30.8l-0.3,0.4
					c-2,2.8-4,5.7-6,8.5l-0.8,1.1c-1.5,2.2-3.1,4.5-5.1,6.5c-6.6,6.8-8.7,14.8-6.3,23.9c1.3,5.1,2.9,10.2,4.5,15.2
					c2.2,6.9,4.4,14.1,5.9,21.3c2.2,10,3.8,20.4,5.4,30.3c0.8,5.2,1.7,10.5,2.6,15.8c0.1,0.3,0.1,0.7,0.2,1.1c0.4,2.4,0.8,4.8,2,6.4
					c12.3,15.5,15.7,33.5,10.5,56.6c-5,22.7-19.1,38.3-43,47.7C385.4,358.3,378.4,359.4,369.7,359.4z M359.7,358.1
					c3.3,0.2,6.7,0.4,10,0.4v0.5l0-0.5C366.4,358.4,363,358.3,359.7,358.1z M416.3,339.5c-6.6,6.3-15,11.4-25.1,15.4
					c-5.5,2.1-11.5,3.2-19,3.4c7.5-0.2,13.5-1.3,19-3.4C401.3,351,409.7,345.9,416.3,339.5z M352.1,357c0.6,0.4,1,0.6,1.5,0.7l0.5,0
					l-0.5,0c-0.4,0-0.9-0.3-1.3-0.6L352.1,357z M364.6,357.3c1.7,0.1,3.4,0.1,5.1,0.1c8.5,0,15.1-1.1,21.1-3.4
					c1.2-0.5,2.3-0.9,3.4-1.4c-0.4,0.2-0.9,0.3-1.3,0.5c-7.1,2.3-14.8,3.1-22.2,3.8l-1,0.1C368.1,357.2,366.5,357.3,364.6,357.3z
					 M350.7,356.2L350.7,356.2c0.2,0.1,0.3,0.2,0.5,0.3L350.7,356.2C350.8,356.2,350.7,356.2,350.7,356.2L350.7,356.2z M356,356.2
					c0.3,0,0.6,0,0.9,0c1.9,0,3.7,0.1,5.5,0.1c-1.8,0-3.6,0-5.5-0.1C356.7,356.2,356.3,356.2,356,356.2z M372.2,355.8
					c-0.6,0.1-1.1,0.1-1.6,0.2l-0.1,0l0.1,0C371.1,355.9,371.7,355.8,372.2,355.8z M429,319.1c-2.2,4.8-5,9.4-8.4,13.6
					c-3.2,4-6.6,7.5-10.1,10.4C418.9,336.7,425.1,328.7,429,319.1z M427.6,319.9c-2.1,4.3-4.7,8.4-7.7,12.2c-0.8,1-1.6,2-2.5,2.9
					c0.8-0.9,1.7-1.9,2.5-2.9C422.9,328.3,425.5,324.2,427.6,319.9z M423.1,252.1c0,0.1,0.1,0.1,0.1,0.2
					c12.1,15.2,15.4,32.9,10.3,55.7c-1.3,5.8-3.2,11.1-5.7,16c2.5-4.9,4.4-10.2,5.7-16c5-22.8,1.8-40.5-10.3-55.7
					C423.2,252.2,423.1,252.1,423.1,252.1z M422.7,253.2c0.1,0.2,0.2,0.3,0.3,0.5c6.7,9.3,10.5,20,11.7,30.9
					C434,272.8,430,262.5,422.7,253.2z M420.2,250.3c0.5,1.4,1.2,2.7,2,3.9c3,4.1,5.4,8.5,7.2,13.1c-1.8-4.6-4.2-9-7.2-13.1
					C421.3,253,420.7,251.7,420.2,250.3z M419.2,241.2c0.2,1.3,0.4,2.6,0.6,3.8c0.1,0.7,0.3,1.6,0.5,2.4c-0.1-0.6-0.2-1.3-0.3-1.9
					l-0.2-1C419.6,243.4,419.4,242.3,419.2,241.2z M420.8,244.5l0.1,0.8C420.9,245,420.9,244.7,420.8,244.5z M416.3,216.9
					c0.7,3.9,1.3,7.8,1.9,11.7c0.6,3.5,1.1,7,1.7,10.5c-0.6-3.5-1.1-7-1.7-10.5C417.6,224.7,417,220.8,416.3,216.9z M400.9,159.9
					c0.3,2.7,0.9,5.4,1.8,8.3c0.7,2.2,1.4,4.4,2,6.5l0,0.1c2.4,7.8,4.9,15.8,7.1,23.8c0-0.1,0-0.1,0-0.2c-1.6-7.1-3.8-14.2-5.9-21.1
					c-1.6-5-3.1-10.2-4.5-15.3C401.2,161.4,401.1,160.6,400.9,159.9z M402,169.6c0.4,1.3,0.8,2.7,1.3,4
					C402.9,172.3,402.5,170.9,402,169.6z M421.7,119.6c-0.3,0.4-0.5,0.7-0.8,1.1c-2.1,2.9-4.2,5.9-6.2,8.8l-0.8,1.1
					c-1.5,2.2-3.1,4.4-5,6.4c-2.3,2.4-4.1,4.9-5.3,7.6c1.3-2.7,3-5.2,5.3-7.6c1.9-1.9,3.4-4.2,5-6.4l0.8-1.1c2-2.9,4-5.7,6-8.5
					l0.2-0.3C421.2,120.3,421.5,119.9,421.7,119.6z M413.6,129.3c-1.4,1.8-2.8,3.5-4.2,5.2c-0.7,0.9-1.4,1.8-2,2.6
					c0.3-0.3,0.5-0.6,0.8-0.9c1.8-1.9,3.4-4.1,4.9-6.2L413.6,129.3z M435,97.1c-0.9,1.3-1.7,2.6-2.6,3.9l-0.1,0.1
					c-4.1,6.1-8.3,12.4-12.7,18.5c4.4-6.1,8.6-12.4,12.7-18.5C433.2,99.7,434.1,98.4,435,97.1z M379.6,79.9
					c-16.1,10.6-25.8,23-26.9,34.4l0-0.3C354,102.9,364.1,90.2,379.6,79.9z M372.9,86.1c-9.8,7.9-16.3,16.6-18.4,24.7
					C359.4,101.1,365.5,92.8,372.9,86.1z M410.3,68.3c-4.4,1-8.8,2.2-13,3.8c-13.6,5.3-24.9,13.9-33.7,25.7
					c8.8-11.7,20.1-20.3,33.7-25.7C401.5,70.5,405.8,69.3,410.3,68.3z M434.9,63.4c4.7,0,8.1,1.6,10.4,4.8c3.7,5.3,1.5,10.2-0.6,15
					c-0.4,0.9-0.8,1.8-1.1,2.7c1.7-3.1,3.1-6.5,4-9.8c1.2-4.4,0.4-8.1-1.3-11.1l-2.5-0.5c-3.3-0.7-7-1.1-10.9-1.1
					c-8.9,0-18.8,1.9-28.6,5.4c6.3-1.7,12.8-2.8,19.2-3.8c1.7-0.3,3.4-0.6,5.1-0.9C430.6,63.7,432.7,63.4,434.9,63.4z M448.9,75
					c-0.1,0.4-0.2,0.9-0.3,1.3c-0.5,1.8-1.1,3.6-1.9,5.4c0.7-1.8,1.4-3.6,1.9-5.4C448.7,75.9,448.8,75.4,448.9,75z M314.2,78.5
					c-0.9,0.3-1.9,0.5-2.9,0.5C312.3,79,313.2,78.9,314.2,78.5z M310.7,79c0.2,0,0.4,0,0.6,0C311.1,79,310.9,79,310.7,79z
					 M307.5,77.3c1.4,0.5,2.7,0.7,3.8,0.7c2.3,0,4.5-1,6.7-3.2c1.3-1.3,2.7-2.5,4-3.7c-1.2,1.1-2.4,2.1-3.6,3.3
					c-2.7,2.5-4.9,3.6-7.5,3.6C309.8,77.9,308.7,77.7,307.5,77.3z M299.1,73c2.6,1,5.1,2,7.7,2.9c1.6,0.6,2.9,0.9,4.1,0.9h0
					c-1.2,0-2.5-0.3-4.1-0.9C304.2,75,301.7,74,299.1,73z M337.2,61.3c-6,3.5-11.9,7.9-17.3,13.1C325.3,69.2,331.2,64.7,337.2,61.3z
					 M432.9,62.4c-13.4,0-29,4.3-43.3,11.8C403.8,66.7,419.5,62.4,432.9,62.4C432.9,62.4,432.9,62.4,432.9,62.4
					C432.9,62.4,432.9,62.4,432.9,62.4z M274.8,63.6c5.1,1.9,10.2,3.9,15.2,5.9c1.4,0.5,2.7,1.1,4.1,1.6c-1.4-0.5-2.7-1.1-4-1.6
					C285,67.5,279.9,65.5,274.8,63.6z M277,65.5c3.4,1.3,6.8,2.7,10.3,4C283.8,68.1,280.4,66.8,277,65.5z M265,61.9l4,1.6
					c5.1,2,10.2,4,15.4,6c-5.2-2-10.3-4-15.4-6L265,61.9z M444.3,68.6c0.1,0.1,0.1,0.2,0.2,0.2c0.1,0.1,0.1,0.2,0.2,0.3
					c-0.1-0.1-0.1-0.2-0.2-0.3C444.4,68.7,444.3,68.7,444.3,68.6z M147.8,66L147.8,66c0.3,0.2,0.6,0.4,0.9,0.6
					c-0.1-0.1-0.2-0.1-0.2-0.2L147.8,66l0.6-0.4C148.2,65.7,148,65.8,147.8,66L147.8,66z M153.1,65.4l-0.6,0.3
					c-0.1,0.1-0.3,0.1-0.4,0.2c0.1-0.1,0.3-0.1,0.4-0.2L153.1,65.4z M447.6,65.3c0.1,0.2,0.2,0.3,0.2,0.5
					C447.7,65.6,447.6,65.4,447.6,65.3L447.6,65.3z M152.6,64.4c-0.7,0.4-1.3,0.7-1.9,1l-0.6,0.4c0.7-0.3,1.3-0.6,1.9-1l1-0.5
					C152.9,64.3,152.7,64.4,152.6,64.4z M447.4,65L447.4,65c-1.6-3-4.2-5.7-7.9-8c-2-1.3-4-2.5-5.9-3.6c1.9,1.1,3.9,2.3,5.9,3.6
					C442.5,58.9,445.6,61.5,447.4,65z M156.6,63.7C156.5,63.8,156.5,63.8,156.6,63.7c-1.1,0.4-1.9,0.8-2.7,1.2
					C154.6,64.6,155.4,64.2,156.6,63.7C156.5,63.8,156.5,63.8,156.6,63.7z M152,63.6c-0.7,0.4-1.2,0.7-1.8,0.9l0,0
					C150.8,64.2,151.4,64,152,63.6z M442.2,63.1c0.6,0.1,1.2,0.2,1.8,0.3l0,0c-1-0.8-1.9-1.6-2.8-2.4c-0.9-0.7-1.7-1.5-2.6-2.2
					c0.9,0.7,1.8,1.5,2.6,2.2l0.2,0.2c0.4,0.3,0.8,0.7,1.2,1l1.4,1.2L442.2,63.1z M438.2,57.3c1.2,1,2.4,2,3.6,3
					c0.9,0.8,1.9,1.6,2.8,2.4l0.2,0.2c-1.7-2.1-3.8-3.7-5.8-5C438.7,57.7,438.5,57.5,438.2,57.3z M157,62.4c0,0-0.1,0.1-0.1,0.1
					c0.3-0.1,0.6-0.2,0.9-0.4c2.6-1,5.2-2.2,7.7-3.3c6.1-2.7,12.4-5.5,19-6.8c8.2-1.5,16.5-2.3,24.8-2.3c7.2,0,14.5,0.6,21.9,1.7
					c-8-1.4-15.6-2.1-23-2.1c-16.9,0-32.1,3.6-46.7,11.1C160.1,61.1,158.6,61.8,157,62.4z M156.5,61.5L156.5,61.5L156.5,61.5
					c0.7-0.3,1.4-0.6,2-0.9C157.9,60.9,157.2,61.2,156.5,61.5z M222.7,49.3c7.8,0.9,15.9,2.6,24.4,5c7.4,2.1,14.7,4.6,22,7.2
					c-7.3-2.7-14.6-5.1-22-7.2C238.5,51.8,230.5,50.2,222.7,49.3z M372.4,46.3c-13.5,2.8-25.9,7.8-37.2,15c0.6-0.4,1.3-0.8,1.9-1.1
					C348.4,53.7,360.2,49.1,372.4,46.3z M210.3,50.8c16.3,0.1,33.1,3.3,50,9.3C243.4,54,226.6,50.9,210.3,50.8z M394.1,44.7
					c-5,0-10.2,0.5-15.4,1.4c-10.1,1.8-20,4.8-29.6,9.1c9.6-4.3,19.5-7.4,29.6-9.1C383.9,45.1,389.1,44.7,394.1,44.7z M197.5,51.3
					c-4.3,0.4-8.6,1-12.9,1.8c-1.2,0.2-2.3,0.5-3.5,0.8c1.1-0.3,2.3-0.6,3.5-0.8C188.8,52.3,193.1,51.7,197.5,51.3z M209.2,50.8
					c0.2,0,0.5,0,0.7,0C209.7,50.8,209.4,50.8,209.2,50.8z M394.8,43.7c10.9,0.1,21.3,2.4,31.3,6.8c-9.8-4.7-18.8-6.9-28-6.9
					C397,43.6,395.9,43.6,394.8,43.7z M395.2,44.7c4.8,0.1,9.6,0.6,14.3,1.5C404.8,45.3,400.1,44.8,395.2,44.7z M398.1,42.6
					c-0.9,0-1.7,0-2.6,0.1C396.4,42.6,397.2,42.6,398.1,42.6z"/>
			</g>
		</g>
		<g>
			<g>
				<path d="M189.5,396.7c4.7,6.1,6.3,13.1,7.1,20.4c1.1,9.7,1.8,19.5,3.4,29.2c0.5,2.8,2.8,6.2,5.3,7.7c4.2,2.4,9.1,4.3,13.9,5
					c16.7,2.2,33.2,1,49-5.5c14.4-5.9,18.1-11.4,18.1-26.8c0-6.7,0.1-13.3-0.2-20c-0.1-3.6,1.3-5.5,4.7-6.6c12.7-4,25.3-8.3,38-12.1
					c13.9-4.1,26.5-10.1,36.5-21c2.9-3.2,7.4-5.1,11.1-7.6c0.3,0.3,0.6,0.6,0.9,0.9c-3,2.7-6,5.3-9.4,8.3c1.6,2.8,3.3,5.5,4.9,8.4
					c3.7,7.1,2.6,12.5-3.4,17.8c-9.8,8.7-22,12.2-34.4,14.8c-4.2,0.9-8.6,1.1-12.9,1.1c-6.3-0.1-11.8-6-12.4-12.8
					c0.5,0.2,1.1,0.3,1.2,0.5c3.2,8.9,9.8,11.3,18.6,10.1c12.3-1.8,24.1-5.2,34.6-12c10.2-6.6,11.2-12.5,4.6-22.6
					c-0.8-1.2-1.6-2.5-2.2-3.5c-6,3.9-12,7.6-17.7,11.6c-9.4,6.6-20.8,7.8-31.2,11.6c-8.6,3.1-17.4,5.5-26,8.5c-1.4,0.5-3,3-3.1,4.7
					c-0.2,7.8,0.3,15.6,0.2,23.5c-0.2,8.8-3.2,16-11.3,20.8c-11.5,6.8-23.9,10.2-37,10.5c-8.9,0.3-17.9-1-26.8-1.7
					c-1-0.1-1.9-0.5-2.9-0.8c-8.8-2.7-13.3-8.5-13.9-17.9C195.7,426.2,195.4,411,189.5,396.7z"/>
				<path d="M237.9,462.1c-5.5,0-11.2-0.5-16.6-1c-2.6-0.2-5.2-0.5-7.8-0.7c-0.8-0.1-1.5-0.3-2.2-0.6c-0.3-0.1-0.5-0.2-0.8-0.3
					c-8.9-2.7-13.6-8.7-14.2-18.3c-0.1-1.6-0.2-3.2-0.3-4.9c-0.8-13.2-1.6-26.8-6.8-39.5l-1.4-3.4l2.3,2.9c5,6.5,6.5,14.1,7.2,20.6
					c0.4,3.2,0.7,6.5,1,9.7c0.6,6.4,1.3,13,2.3,19.5c0.4,2.7,2.7,6,5,7.3c3.2,1.8,8.2,4.2,13.7,4.9c5.1,0.7,10.1,1,14.8,1
					c12.1,0,23.5-2.2,34-6.4c14.2-5.8,17.8-11.2,17.8-26.4c0-1.7,0-3.4,0-5.1c0-4.9,0-9.9-0.2-14.9c-0.1-3.8,1.4-5.9,5-7.1
					c4.7-1.5,9.4-3,13.9-4.5c7.9-2.6,16-5.2,24.1-7.6c16.3-4.8,27.5-11.3,36.3-20.9c2.1-2.3,4.9-3.9,7.6-5.4
					c1.2-0.7,2.5-1.4,3.6-2.2l0.3-0.2l1.5,1.6l-9.5,8.4c0.4,0.7,0.9,1.5,1.3,2.2c1.1,1.9,2.3,3.9,3.3,5.9c3.8,7.2,2.7,12.9-3.5,18.4
					c-9.4,8.3-20.6,12-34.6,14.9c-3.4,0.7-7.2,1.1-11.4,1.1c-0.5,0-1.1,0-1.6,0c-6.5-0.1-12.2-6.1-12.9-13.3l-0.1-0.8l0.8,0.3
					c0.1,0.1,0.3,0.1,0.5,0.2c0.4,0.1,0.9,0.3,1,0.7c2.9,8.1,8.5,11.1,18.1,9.7c14.1-2,25-5.8,34.4-11.9c5-3.3,7.7-6.3,8.4-9.6
					c0.7-3.3-0.5-7.1-3.9-12.3c-0.6-0.9-1.1-1.7-1.6-2.5l-0.4-0.6c-1.7,1.1-3.4,2.2-5.2,3.3c-4,2.6-8.2,5.2-12.1,8
					c-6.4,4.5-13.8,6.5-21,8.5c-3.4,0.9-7,1.9-10.3,3.2c-4.4,1.6-9,3-13.4,4.4c-4.2,1.3-8.5,2.6-12.6,4.1c-1.2,0.4-2.7,2.7-2.7,4.2
					c-0.1,4.1,0,8.2,0.1,12.3c0.1,3.7,0.2,7.5,0.1,11.2c-0.2,9.8-4,16.7-11.6,21.2c-11.2,6.6-23.7,10.2-37.2,10.6
					C239.5,462.1,238.7,462.1,237.9,462.1z M191.5,400.7c3.9,11.6,4.6,23.8,5.4,35.6c0.1,1.6,0.2,3.2,0.3,4.9
					c0.6,9.2,4.9,14.8,13.5,17.4c0.3,0.1,0.5,0.2,0.8,0.3c0.7,0.2,1.3,0.5,2,0.5c2.6,0.2,5.3,0.4,7.8,0.7c6.2,0.6,12.7,1.2,18.9,1
					c13.3-0.4,25.7-3.9,36.8-10.5c7.4-4.4,10.9-10.8,11.1-20.4c0.1-3.7,0-7.5-0.1-11.2c-0.1-4-0.2-8.2-0.1-12.3
					c0-1.7,1.6-4.5,3.4-5.1c4.2-1.5,8.5-2.8,12.7-4.1c4.4-1.4,9-2.8,13.4-4.4c3.4-1.2,7-2.2,10.4-3.2c7.1-1.9,14.4-4,20.7-8.4
					c4-2.8,8.1-5.4,12.2-8c1.9-1.2,3.7-2.4,5.6-3.6l0.4-0.3l0.9,1.4c0.5,0.8,1,1.6,1.6,2.5c3.6,5.4,4.8,9.4,4.1,13
					c-0.8,3.6-3.5,6.8-8.8,10.2c-9.5,6.2-20.5,10-34.8,12.1c-1.5,0.2-2.9,0.3-4.2,0.3c-7.4,0-12.3-3.5-14.9-10.6c0,0-0.1,0-0.2-0.1
					c0.9,6.3,6.1,11.5,11.8,11.6c0.5,0,1.1,0,1.6,0c4.1,0,7.8-0.4,11.2-1.1c13.8-2.9,24.9-6.5,34.2-14.7c5.9-5.2,6.9-10.4,3.3-17.2
					c-1-2-2.2-3.9-3.3-5.8c-0.5-0.9-1-1.7-1.5-2.6l-0.2-0.4l9.3-8.2l-0.2-0.2c-1.1,0.7-2.2,1.4-3.3,2c-2.6,1.5-5.4,3.1-7.3,5.2
					c-8.9,9.8-20.3,16.3-36.7,21.2c-8.1,2.4-16.2,5-24.1,7.6c-4.6,1.5-9.3,3-13.9,4.5c-3.2,1-4.4,2.8-4.3,6.1c0.2,5,0.2,10,0.2,14.9
					c0,1.7,0,3.4,0,5.1c0.1,15.7-3.7,21.3-18.4,27.3c-10.6,4.3-22.1,6.5-34.3,6.5c-4.8,0-9.9-0.3-15-1c-5.7-0.8-10.8-3.2-14.1-5
					c-2.6-1.5-5-5-5.5-8c-1.1-6.5-1.7-13.1-2.4-19.6c-0.3-3.2-0.6-6.5-1-9.7C195.6,412,194.5,406.1,191.5,400.7z"/>
			</g>
			<g>
				<path d="M237.9,462.1c-5.5,0-11.2-0.5-16.6-1c-2.6-0.2-5.2-0.5-7.8-0.7c-0.8-0.1-1.5-0.3-2.2-0.6c-0.3-0.1-0.5-0.2-0.8-0.3
					c-8.9-2.7-13.6-8.7-14.2-18.3c-0.1-1.6-0.2-3.2-0.3-4.9c-0.8-13.2-1.6-26.8-6.8-39.5l-1.4-3.4l2.3,2.9c5,6.5,6.5,14.1,7.2,20.6
					c0.4,3.2,0.7,6.5,1,9.7c0.6,6.4,1.3,13,2.3,19.5c0.4,2.7,2.7,6,5,7.3c3.2,1.8,8.2,4.2,13.7,4.9c5.1,0.7,10.1,1,14.8,1
					c12.1,0,23.5-2.2,34-6.4c14.2-5.8,17.8-11.2,17.8-26.4c0-1.7,0-3.4,0-5.1c0-4.9,0-9.9-0.2-14.9c-0.1-3.8,1.4-5.9,5-7.1
					c4.7-1.5,9.4-3,13.9-4.5c7.9-2.6,16-5.2,24.1-7.6c16.3-4.8,27.5-11.3,36.3-20.9c2.1-2.3,4.9-3.9,7.6-5.4
					c1.2-0.7,2.5-1.4,3.6-2.2l0.3-0.2l1.5,1.6l-9.5,8.4c0.4,0.7,0.9,1.5,1.3,2.2c1.1,1.9,2.3,3.9,3.3,5.9c3.8,7.2,2.7,12.9-3.5,18.4
					c-9.4,8.3-20.6,12-34.6,14.9c-3.4,0.7-7.2,1.1-11.4,1.1c-0.5,0-1.1,0-1.6,0c-6.5-0.1-12.2-6.1-12.9-13.3l-0.1-0.8l0.8,0.3
					c0.1,0.1,0.3,0.1,0.5,0.2c0.4,0.1,0.9,0.3,1,0.7c2.9,8.1,8.5,11.1,18.1,9.7c14.1-2,25-5.8,34.4-11.9c5-3.3,7.7-6.3,8.4-9.6
					c0.7-3.3-0.5-7.1-3.9-12.3c-0.6-0.9-1.1-1.7-1.6-2.5l-0.4-0.6c-1.7,1.1-3.4,2.2-5.2,3.3c-4,2.6-8.2,5.2-12.1,8
					c-6.4,4.5-13.8,6.5-21,8.5c-3.4,0.9-7,1.9-10.3,3.2c-4.4,1.6-9,3-13.4,4.4c-4.2,1.3-8.5,2.6-12.6,4.1c-1.2,0.4-2.7,2.7-2.7,4.2
					c-0.1,4.1,0,8.2,0.1,12.3c0.1,3.7,0.2,7.5,0.1,11.2c-0.2,9.8-4,16.7-11.6,21.2c-11.2,6.6-23.7,10.2-37.2,10.6
					C239.5,462.1,238.7,462.1,237.9,462.1z M191.5,400.7c3.9,11.6,4.6,23.8,5.4,35.6c0.1,1.6,0.2,3.2,0.3,4.9
					c0.6,9.2,4.9,14.8,13.5,17.4c0.3,0.1,0.5,0.2,0.8,0.3c0.7,0.2,1.3,0.5,2,0.5c2.6,0.2,5.3,0.4,7.8,0.7c6.2,0.6,12.7,1.2,18.9,1
					c13.3-0.4,25.7-3.9,36.8-10.5c7.4-4.4,10.9-10.8,11.1-20.4c0.1-3.7,0-7.5-0.1-11.2c-0.1-4-0.2-8.2-0.1-12.3
					c0-1.7,1.6-4.5,3.4-5.1c4.2-1.5,8.5-2.8,12.7-4.1c4.4-1.4,9-2.8,13.4-4.4c3.4-1.2,7-2.2,10.4-3.2c7.1-1.9,14.4-4,20.7-8.4
					c4-2.8,8.1-5.4,12.2-8c1.9-1.2,3.7-2.4,5.6-3.6l0.4-0.3l0.9,1.4c0.5,0.8,1,1.6,1.6,2.5c3.6,5.4,4.8,9.4,4.1,13
					c-0.8,3.6-3.5,6.8-8.8,10.2c-9.5,6.2-20.5,10-34.8,12.1c-1.5,0.2-2.9,0.3-4.2,0.3c-7.4,0-12.3-3.5-14.9-10.6c0,0-0.1,0-0.2-0.1
					c0.9,6.3,6.1,11.5,11.8,11.6c0.5,0,1.1,0,1.6,0c4.1,0,7.8-0.4,11.2-1.1c13.8-2.9,24.9-6.5,34.2-14.7c5.9-5.2,6.9-10.4,3.3-17.2
					c-1-2-2.2-3.9-3.3-5.8c-0.5-0.9-1-1.7-1.5-2.6l-0.2-0.4l9.3-8.2l-0.2-0.2c-1.1,0.7-2.2,1.4-3.3,2c-2.6,1.5-5.4,3.1-7.3,5.2
					c-8.9,9.8-20.3,16.3-36.7,21.2c-8.1,2.4-16.2,5-24.1,7.6c-4.6,1.5-9.3,3-13.9,4.5c-3.2,1-4.4,2.8-4.3,6.1c0.2,5,0.2,10,0.2,14.9
					c0,1.7,0,3.4,0,5.1c0.1,15.7-3.7,21.3-18.4,27.3c-10.6,4.3-22.1,6.5-34.3,6.5c-4.8,0-9.9-0.3-15-1c-5.7-0.8-10.8-3.2-14.1-5
					c-2.6-1.5-5-5-5.5-8c-1.1-6.5-1.7-13.1-2.4-19.6c-0.3-3.2-0.6-6.5-1-9.7C195.6,412,194.5,406.1,191.5,400.7z"/>
				<path d="M237.9,462.6c-5.6,0-11.2-0.5-16.7-1c-2.6-0.2-5.2-0.5-7.8-0.7c-0.8-0.1-1.6-0.3-2.4-0.6c-0.3-0.1-0.5-0.2-0.7-0.2
					c-9.2-2.8-13.9-8.9-14.6-18.7c-0.1-1.5-0.2-3.1-0.3-4.6l0-0.3c-0.8-13.1-1.6-26.7-6.8-39.3l-2.8-6.9l4.5,5.9
					c5.1,6.6,6.6,14.3,7.3,20.9c0.4,3.2,0.7,6.5,1,9.7c0.6,6.4,1.3,13,2.3,19.5c0.4,2.6,2.6,5.7,4.8,7c3.2,1.8,8.1,4.1,13.6,4.8
					c5,0.7,10,1,14.8,1c12,0,23.4-2.2,33.8-6.4c13.9-5.7,17.5-11,17.5-25.9c0-1.7,0-3.4,0-5.1c0-4.9,0-9.9-0.2-14.9
					c-0.2-4,1.6-6.4,5.4-7.6c4.7-1.5,9.4-3,13.9-4.5c7.9-2.6,16-5.2,24.1-7.6c16.2-4.8,27.3-11.2,36.1-20.7c2.1-2.3,4.9-4,7.7-5.5
					c1.2-0.7,2.5-1.4,3.6-2.2l0.7-0.5l2.2,2.2l-9.5,8.4c0.4,0.6,0.7,1.2,1.1,1.9c1.1,1.9,2.3,3.9,3.4,5.9c3.9,7.5,2.8,13.3-3.7,19
					c-9.5,8.4-20.8,12.1-34.9,15c-3.4,0.7-7.3,1.1-11.5,1.1c-0.5,0-1.1,0-1.6,0c-6.7-0.1-12.7-6.3-13.4-13.7l0-0.3
					c-1.4,0.5-2.8,0.9-4.2,1.3c-4.2,1.3-8.5,2.6-12.6,4.1c-1,0.4-2.4,2.5-2.4,3.8c-0.1,4.1,0,8.2,0.1,12.2c0.1,3.7,0.2,7.5,0.1,11.2
					c-0.2,10-4,17-11.8,21.6c-11.3,6.7-23.9,10.3-37.5,10.7C239.5,462.6,238.7,462.6,237.9,462.6z M251.8,460.4
					c-3.8,0.7-7.6,1.1-11.6,1.2c-0.4,0-0.8,0-1.1,0c0.4,0,0.8,0,1.1,0C244.2,461.5,248.1,461.1,251.8,460.4z M267.1,455
					c-6.6,2.5-13.6,4.3-20.9,5.2C253.5,459.4,260.5,457.7,267.1,455z M213.2,459.9c0.1,0,0.2,0,0.3,0c1.1,0.1,2.1,0.2,3.2,0.3
					c-1.1-0.1-2.1-0.2-3.2-0.3C213.4,459.9,213.3,459.9,213.2,459.9z M234.1,459.9c10.4,0,20.3-1.6,29.6-4.8
					C254.4,458.3,244.5,459.9,234.1,459.9z M197.7,426.7C197.7,426.7,197.7,426.8,197.7,426.7c0.6,6.5,1.3,13.1,2.4,19.6
					c0.5,2.9,2.8,6.2,5.3,7.7c3.2,1.9,8.3,4.2,13.9,5c3.6,0.5,7.1,0.8,10.5,0.9c-3.4-0.1-7-0.4-10.5-0.9c-5.6-0.7-10.7-3.1-13.9-5
					c-2.5-1.4-4.8-4.8-5.3-7.7C199,439.8,198.3,433.2,197.7,426.7C197.7,426.8,197.7,426.7,197.7,426.7z M197,430.3
					c0.1,2,0.3,4,0.4,6l0,0.2c0.1,1.5,0.2,3.1,0.3,4.6c0.6,9,4.8,14.4,13.2,17c0.3,0.1,0.5,0.2,0.8,0.3c0.7,0.2,1.3,0.4,1.9,0.5
					c0.3,0,0.7,0.1,1,0.1c-3.9-1.1-7.3-2.8-9.7-4.2c-2.7-1.6-5.3-5.2-5.8-8.4C198.2,441.1,197.6,435.7,197,430.3z M278,450.6
					c-0.2,0.2-0.5,0.3-0.8,0.5c-4.4,2.6-9,4.7-13.7,6.4c4.8-1.6,9.4-3.8,13.7-6.4C277.5,450.9,277.8,450.7,278,450.6z M317.6,392.5
					c-4.2,1.3-8.4,2.7-12.5,4l-0.2,0.1c-4.5,1.5-9.1,3-13.7,4.4c-3,0.9-4.1,2.5-4,5.6c0.2,5,0.2,10.1,0.2,14.9c0,1.7,0,3.4,0,5.1
					c0,6.6-0.6,11.5-2.5,15.3c1.7-3.3,2.6-7.1,2.7-11.7c0.1-3.7,0-7.5-0.1-11.1c-0.1-4-0.2-8.2-0.1-12.3c0-1.9,1.8-4.9,3.7-5.6
					c4.2-1.5,8.5-2.8,12.7-4.1c4.4-1.4,9-2.8,13.4-4.4C317.3,392.6,317.4,392.5,317.6,392.5z M196.5,437.5c0.1,1.3,0.2,2.5,0.2,3.8
					c0,0.2,0,0.3,0,0.5c0-0.2,0-0.3,0-0.5C196.6,440,196.6,438.8,196.5,437.5z M288.6,423.5c0,2.2,0,4.5,0,6.7c0,0.1,0,0.3,0,0.4
					c0-0.1,0-0.3,0-0.4C288.6,428,288.6,425.8,288.6,423.5z M286.3,424.8c0,0.6,0,1.2,0,1.8c0,0.2,0,0.4,0,0.5c0-0.2,0-0.4,0-0.5
					C286.3,426,286.3,425.4,286.3,424.8z M286.3,422c0,0.6,0,1.2,0,1.8C286.3,423.2,286.3,422.6,286.3,422z M287,402.6
					c-0.7,1-0.9,2.4-0.9,4c0.2,4.4,0.2,8.9,0.2,13.3c0-4.4,0-8.9-0.2-13.3C286.1,405,286.4,403.7,287,402.6z M288.4,406.7
					c0,0,0,0.1,0,0.1c-0.1,2.4-0.1,4.9,0,7.4c0-2.4,0-4.9,0-7.4C288.4,406.8,288.4,406.7,288.4,406.7z M333.5,409.9
					c-3,0.5-6.3,0.8-9.7,0.8C327.2,410.7,330.5,410.4,333.5,409.9z M314,407c2.2,2.2,5.1,3.6,8.1,3.6c0.5,0,1.1,0,1.6,0
					c-0.5,0-1.1,0-1.6,0C319.1,410.6,316.3,409.2,314,407z M314,405.5c2.1,2.5,5.1,4.1,8.1,4.1c0.3,0,0.7,0,1,0
					C319.4,409.3,316.3,407.9,314,405.5z M336,408.4c-1.7,0.3-3.4,0.6-5.2,0.9c1.4-0.2,2.7-0.4,4-0.6
					C335.2,408.5,335.6,408.4,336,408.4z M340.2,406.4c-3.4,0.8-7,1.5-10.8,2c-0.2,0-0.4,0.1-0.6,0.1c0.2,0,0.4-0.1,0.6-0.1
					C333.3,407.9,336.9,407.2,340.2,406.4z M310.4,397C310.4,397,310.4,397,310.4,397c0.5,0.2,1.1,0.4,1.4,1
					c2.4,6.6,6.7,9.7,13.5,9.7c1.3,0,2.6-0.1,4.1-0.3c14-2,24.8-5.8,34.2-11.8c4.9-3.2,7.5-6.1,8.2-9.3c0.7-3.2-0.5-6.9-3.8-11.9
					c-0.6-0.9-1.1-1.7-1.6-2.5l-0.1-0.1c-1.6,1-3.2,2-4.7,3c-4,2.6-8.2,5.2-12.1,8c-6.5,4.5-13.9,6.6-21.1,8.6
					c-3.4,0.9-7,1.9-10.3,3.1C315.4,395.4,312.9,396.2,310.4,397z M369.9,394.4c-0.2,0.1-0.3,0.3-0.5,0.4
					c-6.9,6.1-14.8,9.7-24.1,12.3c9.3-2.6,17.2-6.2,24.1-12.3C369.5,394.7,369.7,394.5,369.9,394.4z M189.5,396.7
					c1.3,3.1,2.3,6.3,3.1,9.5c-0.5-1.8-1-3.6-1.6-5.4l0.9-0.4c0.3,0.5,0.6,1.1,0.8,1.6C191.9,400.3,190.9,398.5,189.5,396.7
					L189.5,396.7z M365.1,396.9c-0.2,0.1-0.4,0.2-0.5,0.4c-5.4,3.5-11.3,6.3-18,8.4C353.5,403.6,359.6,400.9,365.1,396.9z
					 M293.1,401.5c-0.6,0.2-1.1,0.4-1.7,0.6c-0.7,0.3-1.5,1-2,1.9c0.6-0.9,1.3-1.6,2-1.9C292,401.9,292.6,401.7,293.1,401.5z
					 M308.6,396.6c-1.5,0.5-3,0.9-4.5,1.4c-0.4,0.1-0.8,0.2-1.2,0.4c0.4-0.1,0.8-0.2,1.2-0.4C305.6,397.5,307.1,397.1,308.6,396.6
					L308.6,396.6z M316,391.9c-3.8,1.2-7.6,2.4-11.3,3.6c-0.9,0.3-1.9,0.6-2.8,0.9c0.9-0.3,1.7-0.6,2.6-0.8l0.2-0.1
					C308.5,394.4,312.2,393.1,316,391.9z M309,396.4L309,396.4c2.8-0.9,5.7-1.8,8.5-2.9c0.4-0.1,0.7-0.3,1.1-0.4
					c-0.4,0.1-0.7,0.2-1.1,0.4C314.7,394.6,311.8,395.5,309,396.4z M372.6,386.8c-0.8,3.1-3.2,6.1-7.8,9.1
					C369.4,392.8,371.8,390,372.6,386.8z M329.3,390c-0.5,0.1-0.9,0.3-1.4,0.4c-2.2,0.6-4.5,1.2-6.8,2c2.3-0.7,4.5-1.3,6.8-2
					C328.3,390.3,328.8,390.2,329.3,390z M346.3,382.4c-5,2.5-10.7,4.7-17.1,6.6c-1.4,0.4-2.8,0.8-4.2,1.3c0.9-0.3,1.8-0.5,2.7-0.7
					C333.9,387.7,340.5,385.9,346.3,382.4z M366.7,369l1.2,1.8c0.5,0.8,1.1,1.7,1.6,2.5c3.6,5.5,4.9,9.7,4.1,13.4
					c-0.1,0.5-0.2,1-0.4,1.5c1.3-3.2,0.9-6.7-1.3-10.7c-1-2-2.2-4-3.3-5.8l-0.1-0.2c-0.5-0.8-0.9-1.6-1.4-2.4l-0.4-0.7l6.7-6
					c0,0-0.1,0-0.1,0.1c-2.6,1.5-5.3,3.1-7.2,5.2c-1.7,1.9-3.5,3.6-5.4,5.3c1.7-1.1,3.5-2.2,5.2-3.3L366.7,369z M352.7,379.3
					c-1.3,0.9-2.7,1.8-4,2.7c-2.3,1.6-4.7,2.9-7.2,4c2.5-1.1,4.9-2.4,7.2-4C350,381.1,351.3,380.2,352.7,379.3z M371.3,374.3
					c0.5,0.9,1,1.8,1.5,2.7c0.1,0.2,0.2,0.3,0.2,0.5c-0.1-0.2-0.2-0.3-0.2-0.5C372.3,376.1,371.8,375.2,371.3,374.3z M368.2,373.2
					c0.1,0.2,0.3,0.4,0.4,0.7c0.5,0.8,1,1.5,1.4,2.3c-0.4-0.7-0.9-1.5-1.4-2.3C368.5,373.7,368.4,373.4,368.2,373.2z M367.8,364.8
					c-0.9,0.7-1.7,1.4-2.5,2.2c-2.4,2.6-4.9,4.9-7.7,7.1c2.8-2.2,5.3-4.5,7.7-7.1C366.1,366.2,366.9,365.4,367.8,364.8z M368,368.6
					c0.5,0.8,0.9,1.6,1.4,2.4l0.1,0.2c0.2,0.4,0.5,0.8,0.7,1.2c-0.2-0.4-0.5-0.8-0.7-1.1c-0.5-0.8-0.9-1.5-1.3-2.2L368,368.6z
					 M366.4,370.4c-0.5,0.3-1,0.6-1.5,1c0.4-0.2,0.7-0.5,1.1-0.7L366.4,370.4L366.4,370.4z M368,368.6l9.4-8.3l-0.4-0.4l0.4,0.4
					L368,368.6z M374.9,360.4c-0.5,0.3-0.9,0.6-1.4,0.8C374,360.9,374.5,360.6,374.9,360.4z"/>
			</g>
		</g>
		<g>
			<g>
				<path d="M290,130.9c-1.1,0-1.6,0.1-1.7,0c-15.6-14.9-34.2-13.2-52.6-8.3c-22.2,6-37.4,20.2-42.1,43.3c-2.5,12.3-2.1,25.1,5.6,36
					c6.6,9.4,13.9,18.2,20.8,27.4c1.4,1.8,2.5,3.7,2.9,6.3c-4.1-4.8-8.5-9.4-12.4-14.4c-7.6-9.6-15.8-19-18.7-31.5
					c-5.1-22.4,1.7-41.9,18.5-56.3c14.9-12.8,33.6-17.7,53.7-15.6c8.5,0.9,16.3,3.3,22.7,9.2C287.8,128,288.6,129.3,290,130.9z"/>
				<path d="M223.6,237.2l-1.1-1.3c-1.3-1.5-2.6-3-3.9-4.4c-2.8-3.2-5.8-6.5-8.5-10c-0.7-0.9-1.5-1.8-2.2-2.8
					c-6.9-8.6-14-17.5-16.6-28.9c-5.1-22.3,1.4-41.9,18.7-56.8c12.5-10.8,27.7-16.2,45.2-16.2c2.9,0,5.9,0.2,8.8,0.5
					c9.9,1,17.2,4,23,9.4c0.8,0.7,1.4,1.5,2.2,2.5c0.4,0.5,0.8,1,1.2,1.5l0.7,0.8H290c-0.4,0-0.8,0-1,0c-0.2,0-0.3,0-0.4,0
					c-0.1,0-0.4,0-0.6-0.2c-8.2-7.8-18-11.6-29.7-11.6c-6.4,0-13.6,1.1-22.4,3.5c-22.9,6.1-37.3,21-41.7,42.9
					c-2.9,14.6-1.1,26.2,5.5,35.6c4.4,6.2,9.1,12.3,13.7,18.2c2.3,3,4.8,6.1,7.1,9.2c1.3,1.7,2.6,3.7,3,6.6L223.6,237.2z
					 M255.2,117.7c-17.2,0-32.2,5.4-44.5,16c-17,14.6-23.3,33.9-18.3,55.9c2.5,11.1,9.6,20,16.4,28.5c0.7,0.9,1.5,1.8,2.2,2.8
					c2.7,3.4,5.6,6.7,8.5,9.9c0.9,1,1.7,2,2.6,2.9c-0.5-1.7-1.4-3-2.3-4.2c-2.3-3.1-4.7-6.2-7.1-9.2c-4.6-5.9-9.4-12-13.8-18.2
					c-6.8-9.7-8.7-21.6-5.7-36.4c4.5-22.3,19.2-37.4,42.5-43.6c8.9-2.4,16.1-3.5,22.7-3.5c12,0,21.9,3.9,30.3,11.9
					c0.1,0,0.2,0,0.4,0c0,0,0,0,0,0c-0.2-0.3-0.4-0.5-0.6-0.7c-0.7-0.9-1.4-1.7-2.1-2.4c-5.6-5.2-12.7-8.1-22.4-9.1
					C261,117.9,258,117.7,255.2,117.7z"/>
			</g>
			<g>
				<path d="M223.6,237.2l-1.1-1.3c-1.3-1.5-2.6-3-3.9-4.4c-2.8-3.2-5.8-6.5-8.5-10c-0.7-0.9-1.5-1.8-2.2-2.8
					c-6.9-8.6-14-17.5-16.6-28.9c-5.1-22.3,1.4-41.9,18.7-56.8c12.5-10.8,27.7-16.2,45.2-16.2c2.9,0,5.9,0.2,8.8,0.5
					c9.9,1,17.2,4,23,9.4c0.8,0.7,1.4,1.5,2.2,2.5c0.4,0.5,0.8,1,1.2,1.5l0.7,0.8H290c-0.4,0-0.8,0-1,0c-0.2,0-0.3,0-0.4,0
					c-0.1,0-0.4,0-0.6-0.2c-8.2-7.8-18-11.6-29.7-11.6c-6.4,0-13.6,1.1-22.4,3.5c-22.9,6.1-37.3,21-41.7,42.9
					c-2.9,14.6-1.1,26.2,5.5,35.6c4.4,6.2,9.1,12.3,13.7,18.2c2.3,3,4.8,6.1,7.1,9.2c1.3,1.7,2.6,3.7,3,6.6L223.6,237.2z
					 M255.2,117.7c-17.2,0-32.2,5.4-44.5,16c-17,14.6-23.3,33.9-18.3,55.9c2.5,11.1,9.6,20,16.4,28.5c0.7,0.9,1.5,1.8,2.2,2.8
					c2.7,3.4,5.6,6.7,8.5,9.9c0.9,1,1.7,2,2.6,2.9c-0.5-1.7-1.4-3-2.3-4.2c-2.3-3.1-4.7-6.2-7.1-9.2c-4.6-5.9-9.4-12-13.8-18.2
					c-6.8-9.7-8.7-21.6-5.7-36.4c4.5-22.3,19.2-37.4,42.5-43.6c8.9-2.4,16.1-3.5,22.7-3.5c12,0,21.9,3.9,30.3,11.9
					c0.1,0,0.2,0,0.4,0c0,0,0,0,0,0c-0.2-0.3-0.4-0.5-0.6-0.7c-0.7-0.9-1.4-1.7-2.1-2.4c-5.6-5.2-12.7-8.1-22.4-9.1
					C261,117.9,258,117.7,255.2,117.7z"/>
				<path d="M224.3,238.7l-2.2-2.5c-1.3-1.5-2.6-3-3.9-4.4c-2.9-3.2-5.8-6.5-8.5-10c-0.7-0.9-1.4-1.8-2.1-2.6l-0.1-0.1
					c-6.9-8.7-14-17.6-16.7-29.1c-5.1-22.5,1.4-42.3,18.8-57.3c12.6-10.8,27.9-16.3,45.5-16.3c2.9,0,5.9,0.2,8.9,0.5
					c10,1,17.4,4.1,23.2,9.5c0.8,0.7,1.5,1.6,2.2,2.5c0.4,0.5,0.8,1,1.2,1.5l1.4,1.6H290c-0.4,0-0.7,0-1,0c-0.2,0-0.3,0-0.4,0
					c-0.2,0-0.6,0-1-0.4c-8.1-7.7-17.8-11.5-29.4-11.5c-6.4,0-13.5,1.1-22.3,3.5c-22.7,6.1-37,20.8-41.4,42.5
					c-2.9,14.4-1.1,26,5.4,35.2c4.4,6.2,9.1,12.3,13.7,18.2c2.4,3,4.8,6.1,7.1,9.2c1.3,1.7,2.7,3.9,3.1,6.8L224.3,238.7z
					 M221.9,234.4c0.3,0.4,0.7,0.7,1,1.1c0,0,0,0,0,0L221.9,234.4z M214.9,226.5c1.2,1.4,2.4,2.8,3.6,4.1
					C217.3,229.2,216.1,227.9,214.9,226.5z M196.5,199.6c3.3,6.6,8,12.5,12.6,18.2c0.7,0.9,1.5,1.8,2.2,2.8c2.5,3.2,5.3,6.4,8,9.4
					c0,0-0.1-0.1-0.1-0.1c-2.3-3.1-4.7-6.2-7.1-9.2c-4.6-5.9-9.4-12-13.8-18.2C197.7,201.5,197,200.5,196.5,199.6z M219.5,228.6
					c0.2,0.2,0.3,0.5,0.5,0.7c0,0,0,0,0,0c0,0,0,0,0,0C219.8,229,219.6,228.8,219.5,228.6z M210.6,217.2c0.8,1,1.5,1.9,2.3,2.9
					c1,1.3,2.1,2.6,3.1,4c-1-1.3-2-2.6-3-3.9C212.2,219.2,211.4,218.2,210.6,217.2z M209.1,219.5c0.3,0.3,0.5,0.6,0.8,1
					C209.6,220.1,209.4,219.8,209.1,219.5z M195.5,195.5c1,2.2,2.2,4.4,3.7,6.4c1.1,1.5,2.1,3,3.2,4.5c-1.1-1.5-2.2-3-3.2-4.5
					C197.7,199.8,196.5,197.7,195.5,195.5z M200.8,145.1c-6.9,9.6-10.1,20.6-9.6,32.6c0.1-3.8,0.5-7.8,1.4-12
					C194.1,157.9,196.9,151,200.8,145.1z M239.4,121.6c-1.2,0.3-2.5,0.6-3.8,1c-23.1,6.2-37.6,21.2-42.1,43.3
					c-0.8,3.7-1.2,7.2-1.3,10.6c0.1-3.3,0.6-6.9,1.3-10.6c4.5-22.1,19-37.1,42.1-43.3C236.9,122.2,238.2,121.9,239.4,121.6z
					 M205.2,138.2c-5.8,6.1-9.9,12.9-12.4,20.2C195.3,151.1,199.4,144.3,205.2,138.2z M255.2,117.2c-16.3,0-30.6,4.8-42.6,14.2
					C224.6,122,238.9,117.2,255.2,117.2z M289.3,130l0.7,0.8l-0.9,0.1c0.2,0,0.5,0,0.9,0l0,0C289.7,130.6,289.5,130.3,289.3,130z
					 M287.4,127.7c0.5,0.5,0.9,1.1,1.4,1.7l0.1,0.2c0,0-0.1-0.1-0.1-0.1C288.3,128.8,287.8,128.2,287.4,127.7z M253.5,118.3
					c-13.4,0.3-25.3,3.9-35.7,10.7c5.2-3.1,11.1-5.6,17.6-7.3C242.3,119.8,248.1,118.7,253.5,118.3z M274.8,121
					c3.4,1.3,6.6,3.1,9.6,5.3C281.6,124,278.4,122.3,274.8,121z M258.5,119.1c7.4,0,14,1.6,20,4.7
					C272.6,120.7,265.9,119.1,258.5,119.1z M260.3,117.4c1.2,0.1,2.4,0.2,3.7,0.3c4.6,0.5,8.6,1.4,12.2,2.7
					c-3.6-1.4-7.6-2.3-12.2-2.7C262.7,117.6,261.5,117.5,260.3,117.4z"/>
			</g>
		</g>
		<g>
			<g>
				<path d="M169.1,389.8c2.2,7.3,0.4,12.7-5,15.4c-3.3,1.6-6.9,3.2-10.4,3.3c-11.1,0.5-22.3,1.1-33.4,0.3
					c-13.1-0.9-20.1-10.1-19-23.2c1.1-12.9,2.3-25.8,3.5-38.7c0.1-0.7,0.4-1.4,1.8-2c0,5.7,0.4,11.4-0.1,17
					c-0.6,7.6-1.6,15.2-3,22.7c-2.2,11.8,4.8,21.3,17,22.2c10.4,0.8,21.1,1.1,31.4-0.3C164.1,404.9,167.1,404.6,169.1,389.8z"/>
				<path d="M132.3,409.7c-4.3,0-8.3-0.1-12-0.4c-6.3-0.4-11.4-2.8-14.8-6.8c-3.6-4.2-5.2-10.1-4.6-17c1.1-12.5,2.3-25.3,3.4-37.6
					l0.1-1.1c0.1-1.1,0.7-1.9,2.1-2.4l0.7-0.3v0.7c0,1.7,0,3.5,0.1,5.3c0.1,3.9,0.2,7.9-0.2,11.8c-0.7,8.3-1.7,15.8-3,22.8
					c-1.1,5.6,0,10.9,3,14.9c3,3.9,7.8,6.3,13.5,6.8c5.9,0.5,11,0.7,15.7,0.7c5.7,0,10.8-0.3,15.6-1l0.3,0
					c11.7-1.6,14.5-2,16.4-16.3l0.3-2.3l0.7,2.2c2.3,7.4,0.3,13.2-5.3,16c-3.2,1.6-6.9,3.2-10.6,3.4l-0.6,0
					C146.3,409.3,139.2,409.7,132.3,409.7z M106.1,345.7c-0.6,0.4-0.7,0.8-0.8,1.2l-0.1,1.1c-1.1,12.3-2.3,25.1-3.4,37.6
					c-0.6,6.6,0.9,12.2,4.4,16.2c3.2,3.8,8.1,6,14.1,6.5c3.7,0.3,7.6,0.4,11.9,0.4c6.9,0,14-0.3,20.8-0.6l0.6,0
					c3.4-0.2,7-1.8,10.2-3.3c4.6-2.2,6.5-6.6,5.4-12.3c-2.1,12.6-5.6,13.1-16.9,14.6l-0.3,0c-4.8,0.7-10,1-15.7,1c0,0,0,0,0,0
					c-4.7,0-9.9-0.2-15.8-0.7c-6-0.5-11-3-14.2-7.2c-3.2-4.2-4.3-9.7-3.2-15.7c1.3-7,2.3-14.4,3-22.7c0.3-3.9,0.2-7.9,0.2-11.7
					C106.2,348.6,106.1,347.2,106.1,345.7z"/>
			</g>
			<g>
				<path d="M132.3,409.7c-4.3,0-8.3-0.1-12-0.4c-6.3-0.4-11.4-2.8-14.8-6.8c-3.6-4.2-5.2-10.1-4.6-17c1.1-12.5,2.3-25.3,3.4-37.6
					l0.1-1.1c0.1-1.1,0.7-1.9,2.1-2.4l0.7-0.3v0.7c0,1.7,0,3.5,0.1,5.3c0.1,3.9,0.2,7.9-0.2,11.8c-0.7,8.3-1.7,15.8-3,22.8
					c-1.1,5.6,0,10.9,3,14.9c3,3.9,7.8,6.3,13.5,6.8c5.9,0.5,11,0.7,15.7,0.7c5.7,0,10.8-0.3,15.6-1l0.3,0
					c11.7-1.6,14.5-2,16.4-16.3l0.3-2.3l0.7,2.2c2.3,7.4,0.3,13.2-5.3,16c-3.2,1.6-6.9,3.2-10.6,3.4l-0.6,0
					C146.3,409.3,139.2,409.7,132.3,409.7z M106.1,345.7c-0.6,0.4-0.7,0.8-0.8,1.2l-0.1,1.1c-1.1,12.3-2.3,25.1-3.4,37.6
					c-0.6,6.6,0.9,12.2,4.4,16.2c3.2,3.8,8.1,6,14.1,6.5c3.7,0.3,7.6,0.4,11.9,0.4c6.9,0,14-0.3,20.8-0.6l0.6,0
					c3.4-0.2,7-1.8,10.2-3.3c4.6-2.2,6.5-6.6,5.4-12.3c-2.1,12.6-5.6,13.1-16.9,14.6l-0.3,0c-4.8,0.7-10,1-15.7,1c0,0,0,0,0,0
					c-4.7,0-9.9-0.2-15.8-0.7c-6-0.5-11-3-14.2-7.2c-3.2-4.2-4.3-9.7-3.2-15.7c1.3-7,2.3-14.4,3-22.7c0.3-3.9,0.2-7.9,0.2-11.7
					C106.2,348.6,106.1,347.2,106.1,345.7z"/>
				<path d="M132.3,410.2c-4.4,0-8.3-0.1-12-0.4c-6.4-0.4-11.7-2.9-15.2-7c-3.7-4.3-5.3-10.3-4.7-17.3c1.1-12.5,2.3-25.2,3.4-37.5
					l0.1-1.2c0.1-1.3,0.9-2.2,2.4-2.8l1.4-0.6v1.5c0,1.7,0,3.4,0.1,5.2c0.1,4,0.2,8-0.2,12c-0.7,8.3-1.7,15.8-3,22.8
					c-1,5.5,0,10.6,2.9,14.5c2.9,3.8,7.6,6.1,13.1,6.6c5.9,0.5,11,0.7,15.7,0.7c5.7,0,10.7-0.3,15.5-1l0.3,0
					c11.7-1.6,14.1-1.9,16-15.9l0.6-4.5l1.3,4.4c2.4,7.7,0.3,13.7-5.6,16.5c-3.3,1.6-7,3.3-10.7,3.4l-0.6,0
					C146.3,409.8,139.2,410.2,132.3,410.2z M148.5,408.7c-5.4,0.2-10.9,0.4-16.2,0.4C137.7,409.2,143.1,409,148.5,408.7z
					 M110.2,405.8c2.8,1.7,6.2,2.7,10.1,2.9c1.7,0.1,3.4,0.2,5.2,0.3c-1.8-0.1-3.5-0.2-5.2-0.3C116.5,408.5,113.1,407.5,110.2,405.8
					z M157.8,406.7c-1.6,0.3-3.4,0.5-5.4,0.8l-0.3,0c-0.1,0-0.1,0-0.2,0c0.4,0,0.8,0,1.2-0.1l0.6,0
					C155,407.4,156.4,407.1,157.8,406.7z M133.8,407.5c0.8,0,1.6,0,2.4,0C135.4,407.5,134.6,407.5,133.8,407.5z M144,407.3
					c-2.4,0.1-4.9,0.2-7.6,0.2C139.1,407.5,141.6,407.5,144,407.3z M104.1,397.6c0.7,1.4,1.5,2.7,2.5,3.9c2.5,2.9,5.9,4.8,10.1,5.7
					c-4.4-1.1-8.2-3.4-10.7-6.8C105.2,399.6,104.6,398.6,104.1,397.6z M169.1,389.8c-2,14.7-5.1,15.1-16.8,16.7l-0.2,0l0.2,0
					c11.4-1.6,14.5-2,16.5-14.2L169.1,389.8C169.1,389.8,169.1,389.8,169.1,389.8L169.1,389.8z M103.1,389.2c0.1,4,1.3,7.7,3.5,10.7
					c1.7,2.3,4,4,6.8,5.2c-2.7-1.2-5-3-6.8-5.2C104.4,396.9,103.2,393.2,103.1,389.2z M169,396c-0.6,2.7-1.4,4.7-2.5,6.2
					C168.1,400.6,168.9,398.5,169,396z M105.7,348.9c-1.1,12.1-2.3,24.5-3.3,36.8c0,0.3-0.1,0.6-0.1,0.9c0.1-0.7,0.2-1.4,0.3-2.2
					c1.3-6.9,2.3-14.3,3-22.6c0.3-3.9,0.2-7.8,0.2-11.7C105.7,349.7,105.7,349.3,105.7,348.9z M106.7,352.7c0,3.1,0,6.2-0.2,9.2
					c-0.3,3.8-0.7,7.4-1.1,10.9c0.4-3.5,0.8-7.1,1.1-10.9C106.8,358.8,106.8,355.7,106.7,352.7z M104.9,346.8
					C104.9,346.8,104.9,346.8,104.9,346.8l-0.1,0.9L104.9,346.8C104.9,346.8,104.9,346.8,104.9,346.8z M106.6,344.9l0,0.7
					C106.6,345.4,106.6,345.1,106.6,344.9L106.6,344.9C106.6,344.9,106.6,344.9,106.6,344.9z"/>
			</g>
		</g>
		<g>
			<g>
				<path d="M236.9,225.6c-3.8-17.9,34.8-75,53.2-80.1C264.9,166.7,244.8,191.3,236.9,225.6z"/>
				<path d="M236.9,228l-0.5-2.2c-2.1-10,8.6-30.6,18.4-45.2c9.7-14.6,24.8-32.6,35.2-35.5l2.2-0.6l-1.8,1.5
					c-29.8,25-46.1,49.6-53,79.8L236.9,228z M287.6,147c-18.1,8.8-49.8,56.3-50.4,75.4C244.4,194.2,260,170.7,287.6,147z"/>
			</g>
			<g>
				<path d="M236.9,228l-0.5-2.2c-2.1-10,8.6-30.6,18.4-45.2c9.7-14.6,24.8-32.6,35.2-35.5l2.2-0.6l-1.8,1.5
					c-29.8,25-46.1,49.6-53,79.8L236.9,228z M287.6,147c-18.1,8.8-49.8,56.3-50.4,75.4C244.4,194.2,260,170.7,287.6,147z"/>
				<path d="M236.9,230.3l-0.9-4.5c-2.1-10.1,8.6-30.9,18.5-45.6c9.8-14.6,24.9-32.8,35.5-35.7l4.4-1.2l-3.5,3
					c-29.7,24.9-46,49.5-52.9,79.6L236.9,230.3z M236.9,225.5C236.9,225.6,236.9,225.6,236.9,225.5c0.2-0.9,0.5-1.9,0.7-2.9
					L236.9,225.5z M248.1,192.3c-6.3,11.1-11.5,22.9-11.4,30.7l0-0.5C236.9,215.1,241.5,203.9,248.1,192.3z M285.7,149.3
					c-26.1,22.9-40.9,45.5-47.9,72.8C244.8,194.9,259.7,172.1,285.7,149.3z M282.3,151c-3.9,3-8.1,7.2-12.3,12.1
					C273.8,159,277.9,155,282.3,151z M287.5,146.5c-1,0.5-2,1.1-3.1,1.7c1-0.6,2-1.2,2.9-1.7L287.5,146.5z M290.1,145.5l-1.9,1.6
					C288.8,146.6,289.5,146.1,290.1,145.5C290.1,145.5,290.1,145.5,290.1,145.5z"/>
			</g>
		</g>
		<g>
			<g>
				<path d="M383,279.4c-10.2,8.6-12.8,20.4-13.9,32.8C366.9,298.7,373.1,283.9,383,279.4z"/>
				<path d="M369.3,316.2l-0.7-3.9c-2.3-13.8,4-28.8,14.2-33.4l3.2-1.5l-2.7,2.3c-10.4,8.8-12.7,20.8-13.7,32.5L369.3,316.2z
					 M379.3,282.3c-6.3,5.2-10.3,14.9-10.1,24.9C370.3,298.3,372.8,289.5,379.3,282.3z"/>
			</g>
			<g>
				<path d="M369.3,316.2l-0.7-3.9c-2.3-13.8,4-28.8,14.2-33.4l3.2-1.5l-2.7,2.3c-10.4,8.8-12.7,20.8-13.7,32.5L369.3,316.2z
					 M379.3,282.3c-6.3,5.2-10.3,14.9-10.1,24.9C370.3,298.3,372.8,289.5,379.3,282.3z"/>
				<path d="M369.5,320.2l-1.3-7.8c-2.4-14.1,4.1-29.3,14.5-33.9l6.5-2.9l-5.4,4.6c-10.2,8.7-12.5,20.6-13.5,32.2L369.5,320.2z
					 M368.7,307.2c0,1.7,0.2,3.4,0.5,5l0,0c0.2-2.2,0.4-4.5,0.8-6.7c-0.1,0.6-0.2,1.1-0.2,1.7L368.7,307.2z M379,281.9l0.7,0.7
					c-3.8,4.2-6.5,9.2-8.2,15.5c1.9-6.9,5.3-13.4,11.6-18.7l0,0l0,0C381.6,280,380.2,280.9,379,281.9z"/>
			</g>
		</g>
	</g>
	<g display="none">
		<g display="inline">
			<g>
				<path d="M104.2,106.3c15.1-14.8,29.7-30.6,48.9-40.2c1.7-0.9,0.2-3.5-1.5-2.6c-19.4,9.7-34.2,25.7-49.5,40.7
					C100.7,105.6,102.8,107.7,104.2,106.3L104.2,106.3z"/>
				<path d="M103.2,107.3L103.2,107.3c-0.8,0-1.6-0.5-1.9-1.3c-0.3-0.7-0.1-1.5,0.5-2.1c2-1.9,3.9-3.8,5.9-5.8
					c13.2-13,26.8-26.5,43.7-35c1.2-0.6,2.6,0.2,2.9,1.4c0.2,0.9-0.2,1.6-1,2c-16.6,8.3-30,21.5-42.9,34.3c-2,1.9-3.9,3.9-5.9,5.8
					C104.1,107.1,103.7,107.3,103.2,107.3z M152.2,63.8c-0.2,0-0.3,0-0.5,0.1c-16.9,8.4-30.4,21.8-43.5,34.8c-2,1.9-3.9,3.9-5.9,5.8
					c-0.4,0.4-0.3,0.7-0.2,1c0.3,0.7,1.1,1,1.7,0.4c2-1.9,3.9-3.9,5.9-5.8c13-12.8,26.4-26.1,43.1-34.5c0.5-0.3,0.5-0.6,0.5-0.9
					C153.2,64.3,152.8,63.8,152.2,63.8z"/>
			</g>
		</g>
	</g>
	<g display="none">
		<g display="inline">
			<g>
				<path d="M100.4,110.2c1.1-1.2,2.2-2.3,3.2-3.5c1.3-1.4-0.8-3.5-2.1-2.1c-1.1,1.2-2.2,2.3-3.2,3.5
					C97,109.5,99.1,111.6,100.4,110.2L100.4,110.2z"/>
				<path d="M99.4,111.1C99.4,111.1,99.4,111.1,99.4,111.1c-0.8,0-1.5-0.5-1.9-1.3c-0.3-0.7-0.2-1.5,0.4-2.1l3.2-3.5
					c0.4-0.4,0.9-0.6,1.4-0.6c0.8,0,1.5,0.5,1.9,1.3c0.3,0.7,0.2,1.5-0.4,2.1l-3.2,3.5C100.4,110.9,99.9,111.1,99.4,111.1z
					 M102.5,104.6c-0.2,0-0.4,0.1-0.6,0.3l-3.2,3.5c-0.4,0.4-0.3,0.8-0.2,1.1c0.2,0.4,0.6,0.7,0.9,0.7c0,0,0,0,0,0
					c0.2,0,0.4-0.1,0.6-0.3l3.2-3.5c0.4-0.4,0.3-0.8,0.2-1.1C103.3,104.8,102.9,104.6,102.5,104.6z"/>
			</g>
		</g>
	</g>
	<g>
		<g>
			<g>
				<path d="M93.3,118.4c3.1-5.6,7.8-9.9,12.2-14.4c4.9-5,9.9-9.9,15-14.6c10.5-9.5,21.8-18,34.3-24.7c1.7-0.9,0.2-3.5-1.5-2.6
					c-12.2,6.5-23.3,14.8-33.6,23.9c-5.7,5-11.1,10.4-16.4,15.9c-4.6,4.7-9.4,9.2-12.7,15C89.8,118.6,92.4,120.1,93.3,118.4
					L93.3,118.4z"/>
				<path d="M92.1,119.6C92.1,119.6,92.1,119.6,92.1,119.6c-0.7,0-1.5-0.4-1.8-1.1c-0.3-0.6-0.3-1.3,0-1.9
					c2.9-5.1,6.9-9.2,10.9-13.2c0.6-0.6,1.3-1.3,1.9-1.9c4.4-4.5,10.2-10.4,16.4-15.9c11.5-10.2,22.5-18.1,33.7-24
					c1.2-0.6,2.6,0.1,2.9,1.4c0.2,0.9-0.1,1.7-1,2.1c-11.8,6.3-23,14.3-34.2,24.6c-5.1,4.6-10.1,9.6-15,14.6
					c-0.7,0.7-1.5,1.5-2.2,2.2c-3.6,3.7-7.4,7.5-10,12.1C93.4,119.3,92.8,119.6,92.1,119.6z M154.1,62.4c-0.2,0-0.3,0-0.5,0.1
					c-11.1,5.9-22,13.7-33.5,23.9c-6.2,5.5-12,11.3-16.4,15.8c-0.6,0.6-1.3,1.3-1.9,1.9c-3.9,4-8,8.1-10.7,13
					c-0.2,0.4-0.1,0.7,0,0.9c0.2,0.3,0.6,0.6,1,0.6h0c0.3,0,0.6-0.2,0.8-0.5c2.7-4.7,6.5-8.6,10.1-12.3c0.7-0.7,1.5-1.5,2.2-2.2
					c4.9-5.1,10-10,15.1-14.7c11.3-10.4,22.6-18.5,34.5-24.8c0.5-0.3,0.5-0.7,0.5-1C155,62.8,154.7,62.4,154.1,62.4z"/>
			</g>
		</g>
	</g>
	<g>
		<g>
			<g>
				<path d="M153,66h1c2,0,2-3,0-3h-1C151,63,151,66,153,66C153,66,151,66,153,66z"/>
				<path d="M154.5,66H153v-0.2c-1-0.3-1.3-1.1-1.3-1.8c0-1,0.5-2,1.8-2h1c1.3,0,2,1,2,2S155.8,66,154.5,66z M153.5,63
					c-0.7,0-1,0.5-1,1s0.3,1,1,1h1c0.7,0,1-0.5,1-1s-0.3-1-1-1H153.5z"/>
			</g>
		</g>
	</g>
	<g>
		<g>
			<g>
				<path d="M155.5,64.7c0.2-0.3,0.5-0.6,0.8-0.8c0.6-0.5,0.5-1.6,0-2.1c-0.6-0.6-1.5-0.5-2.1,0c-0.3,0.2-0.6,0.5-0.8,0.8
					c-0.5,0.6-0.6,1.5,0,2.1C153.9,65.2,155,65.3,155.5,64.7L155.5,64.7z"/>
				<path d="M154.5,65.6L154.5,65.6c-0.6,0-1.1-0.2-1.5-0.6c-0.7-0.7-0.8-1.9,0-2.8c0.3-0.3,0.6-0.6,0.9-0.9c0.9-0.7,2-0.7,2.8,0
					c0.4,0.4,0.6,1,0.6,1.6c0,0.5-0.3,1-0.6,1.3c-0.3,0.2-0.5,0.4-0.7,0.7C155.5,65.4,155,65.6,154.5,65.6z M155.3,61.8
					c-0.3,0-0.6,0.1-0.8,0.3c-0.3,0.2-0.5,0.4-0.7,0.7c-0.2,0.2-0.6,0.9,0,1.5c0.2,0.2,0.5,0.3,0.8,0.3l0,0c0.2,0,0.4,0,0.6-0.2
					c0.3-0.3,0.6-0.6,0.9-0.9c0.2-0.1,0.2-0.4,0.2-0.5c0-0.3-0.1-0.7-0.3-0.8C155.7,61.9,155.5,61.8,155.3,61.8z"/>
			</g>
		</g>
	</g>
	<g id="right_nostril_-_stroke" display="none">
		<g display="inline">
			<g>
				<line x1="390" y1="307" x2="390" y2="320"/>
				<rect x="390" y="307" width="1" height="13"/>
			</g>
		</g>
		<g display="inline">
			<g>
				<g>
					<path d="M389,308c0,0,0,9,0,13c0,2,3,2,3,0c0-4,0-8,0-13C392,306,389,306,389,308C389,308,389,306,389,308z"/>
					<path d="M391,322.5c-1,0-2-0.7-2-2V307h0.2c0.8-2,3.8-1.8,3.8,0.5v13C393,321.8,392,322.5,391,322.5z M390,307.5v13
						c0,0.7,0.5,1,1,1s1-0.3,1-1v-13c0-0.7-0.5-1-1-1S390,306.8,390,307.5z"/>
				</g>
			</g>
		</g>
	</g>
	<g id="left_nostril_-_stroke">
		<g>
			<g>
				<line x1="408" y1="303" x2="408" y2="314"/>
				<rect x="408" y="303" width="1" height="11"/>
			</g>
		</g>
		<g>
			<g>
				<g>
					<path d="M407,304c0,0,0,7,0,11c0,1,3,1,3,0c0-4,0-7,0-11C410,302,407,302,407,304C407,304,407,302,407,304z"/>
					<path d="M409,315.8c-1.2,0-2-0.5-2-1.2V303h0.2c0.8-2,3.8-1.8,3.8,0.5v11C411,315.2,410.2,315.8,409,315.8z M408,303.5v11
						c0,0.1,0.4,0.2,1,0.2s1-0.2,1-0.3l0-11c0-0.7-0.5-1-1-1S408,302.8,408,303.5z"/>
				</g>
			</g>
		</g>
	</g>
	<g id="left_nostril_-_stroke_1_">
		<g>
			<g>
				<line x1="391" y1="308" x2="391" y2="319"/>
				<rect x="391" y="308" width="1" height="11"/>
			</g>
		</g>
		<g>
			<g>
				<g>
					<path d="M390,309c0,0,0,7,0,11c0,1,3,1,3,0c0-4,0-7,0-11C393,307,390,307,390,309C390,309,390,307,390,309z"/>
					<path d="M392,320.8c-1.2,0-2-0.5-2-1.2V308h0.2c0.8-2,3.8-1.8,3.8,0.5v11C394,320.2,393.2,320.8,392,320.8z M391,308.5v11
						c0,0.1,0.4,0.2,1,0.2s1-0.2,1-0.3l0-11c0-0.7-0.5-1-1-1S391,307.8,391,308.5z"/>
				</g>
			</g>
		</g>
	</g>
	<g id="right_eye_-_stroke">
		<g>
			<ellipse cx="328.5" cy="240.8" rx="3.6" ry="12.2"/>
			<path d="M328.5,253.5c-2.7,0-4.1-6.5-4.1-12.7s1.4-12.7,4.1-12.7c2.7,0,4.1,6.5,4.1,12.7S331.2,253.5,328.5,253.5z M328.5,229.1
				c-1.3,0-3.1,4.4-3.1,11.7c0,7.2,1.8,11.7,3.1,11.7c1.3,0,3.1-4.4,3.1-11.7C331.6,233.6,329.8,229.1,328.5,229.1z"/>
		</g>
		<g>
			<path d="M328.5,253.5c-2.7,0-4.1-6.5-4.1-12.7s1.4-12.7,4.1-12.7c2.7,0,4.1,6.5,4.1,12.7S331.2,253.5,328.5,253.5z M328.5,229.1
				c-1.3,0-3.1,4.4-3.1,11.7c0,7.2,1.8,11.7,3.1,11.7c1.3,0,3.1-4.4,3.1-11.7C331.6,233.6,329.8,229.1,328.5,229.1z"/>
			<path d="M328.5,254c-3.2,0-4.6-6.8-4.6-13.2c0-6.3,1.4-13.2,4.6-13.2c3.2,0,4.6,6.8,4.6,13.2C333.1,247.1,331.7,254,328.5,254z
				 M328.5,229.6c-0.8,0-2.6,3.9-2.6,11.2s1.8,11.2,2.6,11.2s2.6-3.9,2.6-11.2S329.3,229.6,328.5,229.6z M328.5,228.6
				c2,0,3.6,5.5,3.6,12.2C332.1,234.1,330.5,228.6,328.5,228.6s-3.6,5.5-3.6,12.2C324.9,234.1,326.5,228.6,328.5,228.6z"/>
		</g>
	</g>
	<g id="left_eye-stroke">
		<g>
			<ellipse cx="376.5" cy="228.8" rx="3.6" ry="12.2"/>
			<path d="M376.5,241.5c-2.7,0-4.1-6.5-4.1-12.7s1.4-12.7,4.1-12.7c2.7,0,4.1,6.5,4.1,12.7S379.2,241.5,376.5,241.5z M376.5,217.1
				c-1.3,0-3.1,4.4-3.1,11.7s1.8,11.7,3.1,11.7c1.3,0,3.1-4.4,3.1-11.7S377.8,217.1,376.5,217.1z"/>
		</g>
		<g>
			<path d="M376.5,241.5c-2.7,0-4.1-6.5-4.1-12.7s1.4-12.7,4.1-12.7c2.7,0,4.1,6.5,4.1,12.7S379.2,241.5,376.5,241.5z M376.5,217.1
				c-1.3,0-3.1,4.4-3.1,11.7s1.8,11.7,3.1,11.7c1.3,0,3.1-4.4,3.1-11.7S377.8,217.1,376.5,217.1z"/>
			<path d="M376.5,242c-3.2,0-4.6-6.8-4.6-13.2s1.4-13.2,4.6-13.2c3.2,0,4.6,6.8,4.6,13.2S379.7,242,376.5,242z M376.5,217.6
				c-0.8,0-2.6,3.9-2.6,11.2s1.8,11.2,2.6,11.2s2.6-3.9,2.6-11.2S377.3,217.6,376.5,217.6z M376.5,216.6c2,0,3.6,5.5,3.6,12.2
				C380.1,222.1,378.5,216.6,376.5,216.6s-3.6,5.5-3.6,12.2C372.9,222.1,374.5,216.6,376.5,216.6z"/>
		</g>
	</g>
	<g>
		<g>
			<path d="M156.7,60.5c-0.1,0-0.2,0.1-0.4,0.1c-0.1,0-0.3,0.1-0.4,0.2c0,0,0,0,0,0c-0.4,0-0.7,0.1-0.9,0.3c-0.3,0-0.5,0.2-0.7,0.3
				C155.2,61.3,156.1,61.2,156.7,60.5z"/>
			<path d="M152.7,62.1l1.2-1.1c0.3-0.2,0.5-0.4,0.8-0.4c0.3-0.2,0.6-0.3,1-0.3c0.1-0.1,0.2-0.1,0.4-0.2c0,0,0.1,0,0.1-0.1l0.1-0.1
				l1.8-0.8l-1.2,1.5c-0.7,0.9-1.8,1-2.7,1.1L152.7,62.1z"/>
		</g>
	</g>
	<g>
		<g>
			<path d="M165.1,56.9c-0.9,0.2-1.7,0.5-2.6,0.9c-0.1,0.1-0.2,0.1-0.3,0.2c-1.4,0.7-2.8,1.3-4.2,1.8c-0.5,0.2-0.9,0.3-1.3,0.5
				c-0.6,0.8-1.5,0.9-2.4,1c0,0-0.1,0-0.1,0.1c-0.1,0-0.1,0-0.2,0.1c-0.2,0.2-0.4,0.3-0.7,0.5c-0.1,0.1-0.1,0.2-0.2,0.3
				c-0.2,0.3-0.4,0.6-0.4,1c-0.4,0.1-0.8,0.2-1.2,0.2c-0.4,0.6-0.2,1.4,0.2,1.8c0.6,0.6,1.5,0.5,2.1,0c0.2-0.1,0.3-0.3,0.5-0.4
				c0.1,0,0.2,0,0.2,0c0,0,0,0,0,0c0.1,0,0.3,0,0.4,0c0.1,0,0.1,0,0.2,0c0,0,0,0,0,0c0.5-0.2,0.9-0.4,1.4-0.6c0,0,0,0,0,0
				c1.2-0.7,2.5-1.4,3.9-1.9c0.3-0.1,0.5-0.3,0.7-0.5c0.8-0.4,1.6-0.8,2.5-1.2c0.3-0.1,0.6-0.2,0.9-0.3c0,0,0.1,0,0.1,0
				c0,0,0,0,0.1,0c0.6-0.2,1.2-0.5,1.8-0.9c0.4-0.3,0.5-0.7,0.5-1.1C167,57.6,166.2,56.7,165.1,56.9z"/>
			<path d="M152.7,66.3c-0.5,0-1-0.2-1.4-0.6c-0.6-0.6-0.8-1.7-0.3-2.5l0.1-0.2l0.3,0c0.2,0,0.5,0,0.8-0.1c0.1-0.3,0.2-0.6,0.4-0.9
				c0.1-0.1,0.1-0.2,0.2-0.3l0.2-0.1c0.2-0.1,0.4-0.3,0.6-0.4l0.2-0.1c0,0,0.1,0,0.1,0l0.1-0.1l0.1,0c1-0.1,1.6-0.2,2.1-0.8l0.1-0.1
				l0.1,0c0.4-0.2,0.9-0.4,1.3-0.5c1.4-0.5,2.8-1.2,4.1-1.8c0.1-0.1,0.2-0.2,0.4-0.3c0.9-0.5,1.8-0.8,2.7-1c0.7-0.2,1.4,0,1.9,0.5
				c0.4,0.4,0.6,1,0.6,1.5c0,0.5-0.2,1.1-0.7,1.4c-0.7,0.5-1.4,0.8-1.9,1c-0.1,0-0.1,0-0.2,0.1c-0.3,0.1-0.6,0.2-0.9,0.3
				c-0.7,0.4-1.5,0.8-2.3,1.1c-0.2,0.2-0.5,0.4-0.8,0.5c-1.2,0.5-2.5,1.1-3.8,1.9l-0.2,0.1c-0.4,0.2-0.9,0.4-1.3,0.6l-0.1,0.1
				c-0.1,0-0.2,0-0.2,0c-0.1,0-0.3,0-0.5,0l0,0c0,0-0.1,0-0.1,0c-0.1,0.1-0.2,0.2-0.3,0.2C153.7,66.1,153.2,66.3,152.7,66.3z
				 M151.8,64c-0.1,0.3,0,0.8,0.3,1c0.4,0.4,1,0.4,1.5,0c0.2-0.1,0.4-0.3,0.6-0.4l0.2-0.1l0.2,0c0.1,0,0.1,0,0.2,0l0.1,0
				c0.1,0,0.1,0,0.2,0l0,0l0.1,0c0,0,0,0,0,0v0v0c0.4-0.2,0.9-0.4,1.3-0.6l0.1,0l0,0c1.4-0.8,2.6-1.4,3.9-1.9
				c0.2-0.1,0.4-0.2,0.5-0.3l0.2-0.1c0.8-0.4,1.6-0.7,2.4-1.2c0.4-0.1,0.7-0.2,1-0.3l0.1,0c0.8-0.3,1.2-0.5,1.7-0.8
				c0.2-0.2,0.3-0.4,0.3-0.6c0-0.3-0.1-0.6-0.3-0.8c-0.2-0.2-0.5-0.4-0.9-0.3c-0.8,0.2-1.6,0.5-2.5,0.9c-0.1,0-0.1,0.1-0.2,0.1
				l-0.1,0.1c-1.3,0.7-2.8,1.3-4.3,1.9c-0.4,0.1-0.8,0.3-1.2,0.5c-0.7,0.8-1.6,0.9-2.5,1l-0.1,0.1l-0.1,0l0,0
				c-0.2,0.1-0.4,0.3-0.6,0.4c0,0,0,0.1-0.1,0.1l-0.1,0.1c-0.1,0.2-0.2,0.4-0.2,0.7l0,0.4l-0.4,0.1C152.6,63.9,152.2,63.9,151.8,64z
				"/>
		</g>
	</g>
</g>
</svg>
